<svg width="29" height="30" viewBox="0 0 29 30" fill="none" xmlns="http://www.w3.org/2000/svg">
<path d="M27.8405 8.41156C29.3865 6.86556 29.3865 4.35011 27.8405 2.80411L25.0368 0.00039275L22.5794 2.45773C20.1682 0.833403 17.3673 -0.0158075 14.4299 0.000222817C6.45985 0.0385143 -0.0134038 6.5547 2.08431e-05 14.5259C0.00653493 18.394 1.51775 22.0296 4.25542 24.7628C6.99332 27.4965 10.6319 29.0019 14.501 29.0019C15.2644 29.0019 16.031 28.9419 16.7794 28.8237C17.9218 28.6431 18.8888 27.9534 19.4325 26.9312C19.985 25.8925 20.0154 24.6825 19.5158 23.6115C18.9696 22.4403 18.6926 21.1856 18.6926 19.8822C18.6926 18.2101 19.1616 16.5825 20.049 15.1757C20.6892 14.1607 21.5258 13.2906 22.5042 12.6134L23.0013 27.05L23.0018 27.0607C23.0531 28.1492 23.947 29.0019 25.0368 29.0019C26.1266 29.0019 27.0205 28.1492 27.0718 27.0607L27.5761 12.4164C27.7596 12.1777 27.869 11.8792 27.869 11.5555V9.28971C27.869 9.02711 27.7969 8.7811 27.6718 8.57005C27.7292 8.51884 27.7857 8.46639 27.8405 8.41156ZM22.2046 9.28971V10.7899C20.7497 11.6431 19.5163 12.8349 18.6117 14.2691C17.5529 15.9477 16.9933 17.8887 16.9933 19.8822C16.9933 21.4356 17.3238 22.932 17.9758 24.3297C18.2477 24.9127 18.2318 25.57 17.9322 26.1332C17.6415 26.6798 17.1246 27.0487 16.5141 27.1452C15.8532 27.2497 15.1758 27.3026 14.501 27.3026C11.0854 27.3026 7.87318 25.9735 5.45605 23.5603C3.03927 21.1473 1.70513 17.9378 1.69935 14.523C1.68751 7.48588 7.40207 1.73337 14.438 1.69955C16.9808 1.68754 19.4112 2.40743 21.5124 3.7887C21.2249 4.34438 21.0717 4.96419 21.0717 5.60783C21.0717 6.66697 21.4842 7.66266 22.2331 8.41156C22.2879 8.46639 22.3444 8.51884 22.4018 8.57005C22.2767 8.7811 22.2046 9.02711 22.2046 9.28971ZM25.3741 26.9842C25.3638 27.163 25.2163 27.3026 25.0367 27.3026C24.8572 27.3026 24.7097 27.163 24.6994 26.9842L24.2168 12.9716H25.8566L25.3741 26.9842ZM26.1697 11.2723H23.9039V9.57293H26.1697V11.2723ZM26.6389 7.20996C26.2109 7.63797 25.6419 7.87361 25.0367 7.87361C24.4315 7.87361 23.8625 7.63797 23.4346 7.20996H23.4345C22.5511 6.32654 22.5511 4.88908 23.4345 4.00571L25.0367 2.40358L26.6389 4.00571C27.0669 4.43366 27.3025 5.00265 27.3025 5.60783C27.3025 6.21302 27.0669 6.78201 26.6389 7.20996Z" fill="#4A4A4A"/>
<path d="M2.54899 0C1.14348 0 0 1.14348 0 2.54899C0 3.95451 1.14348 5.09798 2.54899 5.09798C3.95451 5.09798 5.09798 3.95451 5.09798 2.54899C5.09798 1.14348 3.95451 0 2.54899 0ZM2.54899 3.39866C2.08049 3.39866 1.69933 3.0175 1.69933 2.54899C1.69933 2.08049 2.08049 1.69933 2.54899 1.69933C3.0175 1.69933 3.39866 2.08049 3.39866 2.54899C3.39866 3.0175 3.0175 3.39866 2.54899 3.39866Z" transform="translate(9.40295 19.599)" fill="#4A4A4A"/>
<path d="M2.54899 0C1.14348 0 0 1.14348 0 2.54899C0 3.95451 1.14348 5.09798 2.54899 5.09798C3.95451 5.09798 5.09798 3.95451 5.09798 2.54899C5.09798 1.14348 3.95451 0 2.54899 0ZM2.54899 3.39866C2.08049 3.39866 1.69933 3.0175 1.69933 2.54899C1.69933 2.08049 2.08049 1.69933 2.54899 1.69933C3.0175 1.69933 3.39866 2.08049 3.39866 2.54899C3.39866 3.0175 3.0175 3.39866 2.54899 3.39866Z" transform="translate(4.47485 14.8975)" fill="#4A4A4A"/>
<path d="M2.54899 0C1.14348 0 0 1.14348 0 2.54899C0 3.95451 1.14348 5.09798 2.54899 5.09798C3.95451 5.09798 5.09798 3.95451 5.09798 2.54899C5.09798 1.14348 3.95451 0 2.54899 0ZM2.54899 3.39866C2.08049 3.39866 1.69933 3.0175 1.69933 2.54899C1.69933 2.08049 2.08049 1.69933 2.54899 1.69933C3.0175 1.69933 3.39866 2.08049 3.39866 2.54899C3.39866 3.0175 3.0175 3.39866 2.54899 3.39866Z" transform="translate(5.66455 8.10018)" fill="#4A4A4A"/>
<path d="M2.54899 0C1.14348 0 0 1.14348 0 2.54899C0 3.95451 1.14348 5.09798 2.54899 5.09798C3.95451 5.09798 5.09798 3.95451 5.09798 2.54899C5.09798 1.14348 3.95451 0 2.54899 0ZM2.54899 3.39866C2.08049 3.39866 1.69933 3.0175 1.69933 2.54899C1.69933 2.08049 2.08049 1.69933 2.54899 1.69933C3.0175 1.69933 3.39866 2.08049 3.39866 2.54899C3.39866 3.0175 3.0175 3.39866 2.54899 3.39866Z" transform="translate(10.9323 4.19172)" fill="#4A4A4A"/>
</svg>
