<svg width="26" height="24" viewBox="0 0 26 24" fill="none" xmlns="http://www.w3.org/2000/svg">
<path d="M24.9277 0.434514C24.8026 0.169219 24.5356 0 24.2423 0H0.757741C0.464461 0 0.19755 0.169219 0.0723786 0.434514C-0.0526919 0.699809 -0.0134937 1.01339 0.173102 1.23969L9.20091 12.1893V22.2859C9.20091 22.548 9.33638 22.7915 9.55905 22.9297C9.68108 23.0054 9.81959 23.0436 9.9586 23.0436C10.0735 23.0436 10.1887 23.0174 10.295 22.9648L15.3673 20.4507C15.6251 20.323 15.7881 20.0605 15.7885 19.7729L15.7984 12.1896L24.8267 1.23959C25.0134 1.01339 25.0527 0.699708 24.9277 0.434514ZM14.4566 11.4352C14.345 11.5705 14.2837 11.7406 14.2835 11.9161L14.2738 19.3015L10.7164 21.0647V11.9172C10.7164 11.7413 10.6553 11.5708 10.5433 11.4352L2.36446 1.51529H22.6355L14.4566 11.4352Z" transform="translate(0.5 0.833344)" fill="white"/>
</svg>
