<svg width="30" height="26" viewBox="0 0 30 26" fill="none" xmlns="http://www.w3.org/2000/svg">
<path d="M10.3685 1.41379L8.85881 0.10914C8.67154 -0.0528134 8.38836 -0.0321296 8.22646 0.155254C8.06457 0.342579 8.08513 0.625706 8.27257 0.787601L9.78213 2.09225C10.3203 2.55732 10.3797 3.37347 9.91467 3.9116L0.109141 15.2575C-0.0527538 15.4448 -0.0321866 15.728 0.155197 15.8899C0.239983 15.9632 0.344338 15.9991 0.448167 15.9991C0.573968 15.9991 0.698949 15.9465 0.787602 15.8439L10.5931 4.49789C11.3815 3.5857 11.2807 2.20212 10.3685 1.41379Z" transform="translate(18.8757 7.45078)" fill="#4A4A4A"/>
<path d="M10.8422 6.56757L3.85869 0.532325C3.41677 0.150409 2.85251 -0.0363301 2.27009 0.00585758C1.68755 0.0482211 1.15645 0.315 0.774534 0.756857L0.109141 1.52678C-0.0527538 1.71417 -0.0321866 1.99729 0.155197 2.15919C0.342639 2.3212 0.625707 2.30046 0.787602 2.11313L1.45299 1.34321C1.67829 1.08258 1.99159 0.925198 2.33525 0.900178C2.6789 0.874924 3.01165 0.985433 3.27234 1.21073L10.2558 7.24597C10.3406 7.31927 10.4449 7.35513 10.5488 7.35513C10.6746 7.35513 10.7996 7.30251 10.8882 7.19997C11.05 7.01259 11.0295 6.72946 10.8422 6.56757Z" transform="translate(15.7445)" fill="#4A4A4A"/>
<path d="M15.0325 4.16594L2.95116 0.113694C1.80794 -0.269746 0.566153 0.348363 0.182772 1.49141L0.0233965 1.96655C-0.0553538 2.20128 0.071151 2.45546 0.305937 2.53421C0.540723 2.61296 0.794786 2.48652 0.873595 2.25167L1.03297 1.77653C1.25914 1.10217 1.99163 0.737544 2.66604 0.963776L14.7475 5.01596C15.4218 5.24219 15.7864 5.97473 15.5602 6.64903L9.93914 23.4081C9.86039 23.6428 9.98689 23.8969 10.2217 23.9757C10.269 23.9916 10.317 23.9991 10.3643 23.9991C10.5517 23.9991 10.7264 23.8807 10.7893 23.6933L16.4104 6.93427C16.7938 5.79128 16.1757 4.54932 15.0325 4.16594Z" transform="translate(7.29749 0.816605)" fill="#4A4A4A"/>
<path d="M14.9295 0H2.18661C0.980922 0 0 0.980864 0 2.18655V19.8631C0 21.0688 0.980922 22.0497 2.18661 22.0497H14.9295C16.1352 22.0497 17.1161 21.0688 17.1161 19.8631V2.18655C17.1161 0.980864 16.1352 0 14.9295 0ZM16.2193 19.8631C16.2193 20.5744 15.6407 21.153 14.9295 21.153H2.18661C1.47534 21.153 0.896722 20.5743 0.896722 19.8631V2.18655C0.896722 1.47528 1.4754 0.896664 2.18661 0.896664H14.9295C15.6408 0.896664 16.2194 1.47534 16.2194 2.18655V19.8631H16.2193Z" transform="translate(0 3.85853)" fill="#4A4A4A"/>
<path d="M13.6579 0H0.448361C0.200743 0 0 0.200744 0 0.448362C0 0.69598 0.200743 0.896724 0.448361 0.896724H13.658C13.9056 0.896724 14.1063 0.69598 14.1063 0.448362C14.1063 0.200744 13.9055 0 13.6579 0Z" transform="translate(1.50488 16.2331)" fill="#4A4A4A"/>
<path d="M6.00038 0H0.448362C0.200744 0 0 0.200744 0 0.448362C0 0.69598 0.200744 0.896724 0.448362 0.896724H6.00038C6.248 0.896724 6.44874 0.69598 6.44874 0.448362C6.44874 0.200744 6.248 0 6.00038 0Z" transform="translate(7.07227 18.797)" fill="#4A4A4A"/>
<path d="M2.43112 0H0.448361C0.200743 0 0 0.200744 0 0.448362C0 0.69598 0.200743 0.896724 0.448361 0.896724H2.43112C2.67874 0.896724 2.87949 0.69598 2.87949 0.448362C2.87949 0.200744 2.67874 0 2.43112 0Z" transform="translate(3.59497 18.797)" fill="#4A4A4A"/>
<path d="M9.4777 0H0.448361C0.200743 0 0 0.200744 0 0.448362C0 0.69598 0.200743 0.896724 0.448361 0.896724H9.4777C9.72532 0.896724 9.92606 0.69598 9.92606 0.448362C9.92606 0.200685 9.72532 0 9.4777 0Z" transform="translate(3.59497 20.5109)" fill="#4A4A4A"/>
<path d="M9.4777 0H0.448361C0.200743 0 0 0.200744 0 0.448362C0 0.69598 0.200743 0.896724 0.448361 0.896724H9.4777C9.72532 0.896724 9.92606 0.69598 9.92606 0.448362C9.92606 0.200744 9.72532 0 9.4777 0Z" transform="translate(3.59497 22.2248)" fill="#4A4A4A"/>
<path d="M9.87752 3.58027C9.82479 3.41796 9.68451 3.29966 9.51565 3.27517L6.6385 2.8571L5.35184 0.249961C5.27625 0.096914 5.12045 0 4.94977 0C4.77914 0 4.62328 0.096914 4.54769 0.249961L3.26097 2.8571L0.383828 3.27517C0.21496 3.29966 0.0746279 3.41796 0.0219519 3.58027C-0.0307827 3.74257 0.0132212 3.9207 0.13539 4.03982L2.21735 6.06917L1.72587 8.93476C1.69704 9.10293 1.76618 9.27291 1.90423 9.37322C1.98233 9.42994 2.07485 9.45883 2.16778 9.45883C2.23909 9.45883 2.31075 9.44178 2.37638 9.40738L4.94977 8.05439L7.52316 9.40738C7.67421 9.48678 7.85726 9.47354 7.99531 9.37322C8.13341 9.27291 8.2025 9.10293 8.17367 8.93476L7.68218 6.06917L9.76409 4.03982C9.88625 3.9207 9.93026 3.74257 9.87752 3.58027ZM6.88753 5.59163C6.78183 5.69463 6.7336 5.84305 6.75856 5.98848L7.13632 8.19097L5.15836 7.15105C5.0277 7.08243 4.87166 7.08243 4.74111 7.15105L2.76316 8.19097L3.14091 5.98848C3.16581 5.84305 3.11765 5.69463 3.01195 5.59163L1.4118 4.03185L3.6232 3.71046C3.76921 3.68925 3.89543 3.59755 3.96076 3.46519L4.94971 1.46128L5.93866 3.46519C6.00393 3.5975 6.1302 3.68925 6.27622 3.71046L8.48767 4.03185L6.88753 5.59163Z" transform="translate(3.60828 5.48041)" fill="#4A4A4A"/>
</svg>
