<svg width="28" height="29" viewBox="0 0 28 29" fill="none" xmlns="http://www.w3.org/2000/svg">
<path d="M2.94118 0C1.29412 0 0 0.941177 0 2.11765C0 3.29412 1.29412 4.23529 2.94118 4.23529C4.58824 4.23529 5.88235 3.29412 5.88235 2.11765C5.88235 0.941177 4.58824 0 2.94118 0ZM2.94118 3.05882C1.94118 3.05882 1.17647 2.52941 1.17647 2.11765C1.17647 1.64706 1.94118 1.17647 2.94118 1.17647C3.94118 1.17647 4.70588 1.70588 4.70588 2.11765C4.70588 2.58824 3.94118 3.05882 2.94118 3.05882Z" transform="translate(5.76489 3.76472)" fill="#4A4A4A"/>
<path d="M25.0588 10.5882H17.4118V5.88235C17.4118 2.64706 13.5294 0 8.70588 0C3.88235 0 0 2.64706 0 5.88235V17.8824C0 20.5294 2.64706 22.8824 6.41176 23.5882V28.4118C6.41176 28.7647 6.64706 29 7 29H25.0588C26.7059 29 28 27.7059 28 26.0588V13.5294C28 11.8824 26.7059 10.5882 25.0588 10.5882ZM8.70588 1.17647C12.8824 1.17647 16.2353 3.29412 16.2353 5.88235C16.2353 8.47059 12.8824 10.5882 8.70588 10.5882C4.52941 10.5882 1.17647 8.47059 1.17647 5.88235C1.17647 3.29412 4.52941 1.17647 8.70588 1.17647ZM16.2353 8.82353V10.5882H13.8824C14.8235 10.1176 15.6471 9.52941 16.2353 8.82353ZM6.41176 15.8824V22.3529C3.35294 21.7059 1.17647 19.9412 1.17647 17.8824V8.82353C2.70588 10.5882 5.47059 11.7647 8.70588 11.7647H25.0588C26.0588 11.7647 26.8235 12.5294 26.8235 13.5294C26.8235 14.5294 26.0588 15.2941 25.0588 15.2941H7C6.64706 15.2941 6.41176 15.5294 6.41176 15.8824ZM26.9412 26H26.8235C26.8235 27 26.0588 27.7647 25.0588 27.7647H24.3529V25.0588C24.3529 24.7059 24.1176 24.4706 23.7647 24.4706C23.4118 24.4706 23.1765 24.7059 23.1765 25.0588V27.7647H21V25.0588C21 24.7059 20.7647 24.4706 20.4118 24.4706C20.0588 24.4706 19.8235 24.7059 19.8235 25.0588V27.7647H17.6471V25.0588C17.6471 24.7059 17.4118 24.4706 17.0588 24.4706C16.7059 24.4706 16.4706 24.7059 16.4706 25.0588V27.7647H14.2941V25.0588C14.2941 24.7059 14.0588 24.4706 13.7059 24.4706C13.3529 24.4706 13.1176 24.7059 13.1176 25.0588V27.7647H10.9412V25.0588C10.9412 24.7059 10.7059 24.4706 10.3529 24.4706C10 24.4706 9.76471 24.7059 9.76471 25.0588V27.7647H7.70588V23.2353C7.70588 23.1765 7.76471 23.1176 7.76471 23.1176C7.76471 23 7.76471 22.9412 7.70588 22.8235V16.4706H25.1765C25.8235 16.4706 26.4706 16.2353 26.9412 15.8824V26Z" fill="#4A4A4A"/>
</svg>
