<svg width="30" height="29" viewBox="0 0 30 29" fill="none" xmlns="http://www.w3.org/2000/svg">
<path d="M25.4902 2.45243e-07C25.4899 2.45243e-07 25.4895 2.45243e-07 25.4892 2.45243e-07H0.429523C0.192584 -0.000250351 0.000250842 0.191581 2.45243e-07 0.42852C2.45243e-07 0.428833 2.45243e-07 0.42921 2.45243e-07 0.429523V12.4582C-0.000250351 12.6951 0.191581 12.8874 0.428521 12.8877C0.428834 12.8877 0.42921 12.8877 0.429523 12.8877H17.4701C17.7073 12.8877 17.8996 12.6953 17.8996 12.4582C17.8996 12.221 17.7073 12.0286 17.4701 12.0286H0.859046V0.859046H25.0597V1.9331C25.0594 2.17004 25.2512 2.36238 25.4882 2.36263C25.4885 2.36263 25.4889 2.36263 25.4892 2.36263C25.7261 2.36288 25.9185 2.17104 25.9187 1.93411C25.9187 1.93379 25.9187 1.93342 25.9187 1.9331V0.429523C25.919 0.192584 25.7271 0.000313491 25.4902 2.45243e-07Z" transform="translate(0 9.52486)" fill="#4A4A4A"/>
<path d="M21.5742 4.52113L1.52644 0.010394C1.41517 -0.0144777 1.29858 0.00569529 1.20217 0.0665276C1.10587 0.127861 1.03778 0.224779 1.01272 0.336169L0.0103287 4.84691C-0.0411689 5.07859 0.104929 5.30813 0.336606 5.35963C0.568282 5.41113 0.797829 5.26503 0.849326 5.03335L1.75799 0.943115L21.3857 5.35913C21.4168 5.36633 21.4486 5.3699 21.4804 5.36965C21.7176 5.36922 21.9096 5.17657 21.9092 4.93938C21.9088 4.73884 21.7698 4.5653 21.5742 4.52113Z" transform="translate(1.00208 3.00948)" fill="#4A4A4A"/>
<path d="M13.6343 5.0452L1.60565 0.0332628C1.39659 -0.0538822 1.15571 0.0356435 1.05434 0.238251L0.0519538 2.24302C-0.0612533 2.4524 0.0166822 2.71396 0.226118 2.82716C0.435492 2.94037 0.697052 2.86244 0.810259 2.653C0.814707 2.64479 0.818905 2.6364 0.822789 2.62788V2.62888L1.64525 0.982961L13.3025 5.84003C13.522 5.93162 13.7743 5.828 13.8658 5.60847C13.9574 5.38908 13.8538 5.13685 13.6343 5.0452Z" transform="translate(6.50769)" fill="#4A4A4A"/>
<path d="M4.40749 0H0.429522C0.192332 0 0 0.192333 0 0.429523C0 0.666713 0.192332 0.859046 0.429522 0.859046H4.40749C4.64468 0.859046 4.83702 0.666713 4.83702 0.429523C4.83702 0.192333 4.64468 0 4.40749 0Z" transform="translate(16.0382 11.5296)" fill="#4A4A4A"/>
<path d="M4.4105 0C1.97464 0 0 1.97464 0 4.4105C0.00250597 6.8453 1.9757 8.8185 4.4105 8.821C6.84636 8.821 8.821 6.84636 8.821 4.4105C8.821 1.97464 6.84636 0 4.4105 0ZM4.4105 8.01909C2.41751 8.01909 0.801909 6.40349 0.801909 4.4105C0.804102 2.41844 2.41845 0.804101 4.4105 0.801908C6.4035 0.801908 8.01909 2.4175 8.01909 4.4105C8.01909 6.40349 6.4035 8.01909 4.4105 8.01909Z" transform="translate(8.04749 11.5582)" fill="#4A4A4A"/>
<path d="M5.51313 0C2.8568 0 0 0.627494 0 2.00477V14.0334C0 15.4107 2.8568 16.0382 5.51313 16.0382C8.16945 16.0382 11.0263 15.4107 11.0263 14.0334V2.00477C11.0263 0.627494 8.16945 0 5.51313 0ZM10.0239 14.0259C9.94819 14.3041 8.44511 15.0358 5.51313 15.0358C2.58115 15.0358 1.07807 14.3041 1.00239 14.0334V13.2455C2.06893 13.7828 3.83062 14.0334 5.51313 14.0334C7.19563 14.0334 8.95783 13.7803 10.0239 13.245V14.0259ZM10.0239 12.0211C9.94819 12.2993 8.44511 13.031 5.51313 13.031C2.58115 13.031 1.07807 12.2993 1.00239 12.0286V11.2408C2.06893 11.778 3.83062 12.0286 5.51313 12.0286C7.19563 12.0286 8.95783 11.7755 10.0239 11.2403V12.0211ZM10.0239 10.0163C9.94819 10.2945 8.44511 11.0263 5.51313 11.0263C2.58115 11.0263 1.07807 10.2945 1.00239 10.0239V9.23599C2.06893 9.77327 3.83062 10.0239 5.51313 10.0239C7.19563 10.0239 8.95783 9.77076 10.0239 9.23549V10.0163ZM10.0239 8.01157C9.94819 8.28974 8.44511 9.02148 5.51313 9.02148C2.58115 9.02148 1.07807 8.28974 1.00239 8.01909V7.23122C2.06893 7.7685 3.83062 8.01909 5.51313 8.01909C7.19563 8.01909 8.95783 7.76599 10.0239 7.23072V8.01157ZM10.0239 6.0068C9.94819 6.28496 8.44511 7.01671 5.51313 7.01671C2.58115 7.01671 1.07807 6.28496 1.00239 6.01432V5.22644C2.06893 5.76122 3.83062 6.01432 5.51313 6.01432C7.19563 6.01432 8.95783 5.76122 10.0239 5.22594V6.0068ZM10.0239 4.00203C9.94819 4.28019 8.44511 5.01193 5.51313 5.01193C2.58115 5.01193 1.07807 4.28019 1.00239 4.00955V3.22167C2.06893 3.75644 3.83062 4.00955 5.51313 4.00955C7.19563 4.00955 8.95783 3.75644 10.0239 3.22117V4.00203ZM5.51313 3.00716C2.58566 3.00716 1.08308 2.27742 1.00239 2.01379V2.01079C1.08308 1.73162 2.58566 1.00239 5.51313 1.00239C8.42005 1.00239 9.92363 1.7211 10.0239 2.00477C9.92363 2.28845 8.42005 3.00716 5.51313 3.00716Z" transform="translate(18.9739 12.9615)" fill="#4A4A4A"/>
<path d="M6.44434 8.01859H2.65582L0.859547 6.05391V2.79616L2.84327 0.859047H6.44434C6.68153 0.859047 6.87387 0.666714 6.87387 0.429524C6.87387 0.192334 6.68153 1.07114e-06 6.44434 1.07114e-06H2.66886C2.55659 -0.000249526 2.44864 0.0434796 2.36814 0.121791L0.129308 2.30549C0.0456718 2.40322 -0.000187372 2.52771 5.7542e-07 2.65633V6.22081C5.7542e-07 6.328 0.0400334 6.43131 0.112268 6.5105L2.14862 8.73781C2.23 8.82689 2.34515 8.8777 2.46587 8.87764H6.44434C6.68153 8.87764 6.87387 8.6853 6.87387 8.44811C6.87387 8.21092 6.6816 8.01859 6.44434 8.01859Z" transform="translate(2.00427 11.5296)" fill="#4A4A4A"/>
<path d="M1.75418 1.75418H1.25298C1.09711 1.75418 1.00239 1.66697 1.00239 1.62888C1.00239 1.59079 1.09711 1.50358 1.25298 1.50358H2.50597C2.78275 1.50358 3.00716 1.27917 3.00716 1.00239C3.00716 0.725603 2.78275 0.501193 2.50597 0.501193H2.00477C2.00477 0.224409 1.78036 0 1.50358 0C1.2268 0 1.00239 0.224409 1.00239 0.501193V0.523747C0.446501 0.602246 0.0253729 1.06554 0 1.62637C0.035898 2.2835 0.595606 2.78839 1.25298 2.75656H1.75418C1.91005 2.75656 2.00477 2.84377 2.00477 2.88186C2.00477 2.91995 1.91005 3.00716 1.75418 3.00716H0.501193C0.224409 3.00716 0 3.23157 0 3.50835C0 3.78514 0.224409 4.00955 0.501193 4.00955H1.00239C1.00239 4.28633 1.2268 4.51074 1.50358 4.51074C1.78036 4.51074 2.00477 4.28633 2.00477 4.00955V3.98699C2.56066 3.90849 2.98179 3.4452 3.00716 2.88437C2.97126 2.22724 2.41155 1.72235 1.75418 1.75418Z" transform="translate(10.9545 13.7133)" fill="#4A4A4A"/>
</svg>
