<?xml version="1.0" encoding="iso-8859-1"?>
<!-- Generator: Adobe Illustrator 19.0.0, SVG Export Plug-In . SVG Version: 6.00 Build 0)  -->
<svg version="1.1" id="Capa_1" xmlns="http://www.w3.org/2000/svg" xmlns:xlink="http://www.w3.org/1999/xlink" x="0px" y="0px"
	 viewBox="0 0 480.24 480.24" style="enable-background:new 0 0 480.24 480.24;" xml:space="preserve">
<g>
	<g>
		<g>
			<path d="M480,75.962c-0.526-33.492-28.042-60.25-61.536-59.84H61.536C28.012,15.713,0.483,42.519,0,76.042v248.16
				c0.483,33.523,28.012,60.329,61.536,59.92h126.552l-10.248,32h-18.592c-12.834,0.013-23.235,10.414-23.248,23.248v1.504
				c0.013,12.834,10.414,23.235,23.248,23.248h177.504c12.832-0.018,23.23-10.416,23.248-23.248v-1.504
				c-0.018-12.832-10.416-23.23-23.248-23.248h-19.024l-10.64-32h111.616c16.538,0.089,32.423-6.445,44.112-18.144
				c11.17-11.061,17.445-26.136,17.424-41.856L480,75.962z M336.752,432.122c3.999,0.009,7.239,3.249,7.248,7.248v1.504
				c-0.009,3.999-3.249,7.239-7.248,7.248H159.248c-3.999-0.009-7.239-3.249-7.248-7.248v-1.504
				c0.009-3.999,3.249-7.239,7.248-7.248H336.752z M194.64,416.122l10.248-32h85.344l10.64,32H194.64z M451.496,354.674
				c-8.695,8.684-20.504,13.527-32.792,13.448H61.536c-20.067,0.195-37.877-12.821-43.784-32h444.576
				C460.339,343.121,456.613,349.503,451.496,354.674z M16,320.122V76.042c0.482-24.687,20.848-44.33,45.536-43.92h356.928
				c24.67-0.411,45.028,19.204,45.536,43.872l0.24,244.128H16z"/>
			<rect x="392" y="240.122" width="16" height="16"/>
			<rect x="360" y="240.122" width="16" height="16"/>
			<rect x="328" y="240.122" width="16" height="16"/>
			<path d="M225.457,112.252c-0.481-0.087-0.969-0.131-1.457-0.129H102.552l-6.712-33.6c-0.76-3.725-4.038-6.401-7.84-6.4H56v16
				h25.44l6.696,33.472l15.344,84.384c-9.03,12.146-7.812,29.072,2.864,39.8c1.5,1.5,3.534,2.344,5.656,2.344h96v-16h-92.24
				c-3.128-4.904-3.024-11.202,0.264-16h92c3.866,0.001,7.18-2.764,7.872-6.568l16-88
				C232.687,117.207,229.804,113.042,225.457,112.252z M201.36,200.122h-82.688l-13.088-72h108.832L201.36,200.122z"/>
			<rect x="168" y="144.122" width="16" height="40"/>
			<rect x="136" y="144.122" width="16" height="40"/>
			<path d="M132,256.122c-6.627,0-12,5.373-12,12c0,6.627,5.373,12,12,12c6.627,0,12-5.373,12-12
				C144,261.495,138.627,256.122,132,256.122z M132,272.122c-2.209,0-4-1.791-4-4c0-2.209,1.791-4,4-4c2.209,0,4,1.791,4,4
				C136,270.331,134.209,272.122,132,272.122z"/>
			<path d="M188,256.122c-6.627,0-12,5.373-12,12c0,6.627,5.373,12,12,12c6.627,0,12-5.373,12-12
				C200,261.495,194.627,256.122,188,256.122z M188,272.122c-2.209,0-4-1.791-4-4c0-2.209,1.791-4,4-4c2.209,0,4,1.791,4,4
				C192,270.331,190.209,272.122,188,272.122z"/>
			<rect x="280" y="96.122" width="128" height="16"/>
			<rect x="280" y="144.122" width="128" height="16"/>
			<rect x="280" y="192.122" width="128" height="16"/>
		</g>
	</g>
</g>
<g>
</g>
<g>
</g>
<g>
</g>
<g>
</g>
<g>
</g>
<g>
</g>
<g>
</g>
<g>
</g>
<g>
</g>
<g>
</g>
<g>
</g>
<g>
</g>
<g>
</g>
<g>
</g>
<g>
</g>
</svg>
