<svg width="30" height="23" viewBox="0 0 30 23" fill="none" xmlns="http://www.w3.org/2000/svg">
<path d="M10.8529 0.752907V7.54744C10.8529 7.96368 11.1896 8.30035 11.6058 8.30035H14.2502V10.3448H4.15017C3.73393 10.3448 3.39727 10.6815 3.39727 11.0977V13.7849H0.752908C0.336666 13.7849 0 14.1216 0 14.5378V21.3324C0 21.7486 0.336666 22.0853 0.752908 22.0853H7.54744C7.96368 22.0853 8.30035 21.7486 8.30035 21.3324V14.5378C8.30035 14.1216 7.96368 13.7849 7.54744 13.7849H4.89696V11.8445H14.244V13.7849H11.5997C11.1834 13.7849 10.8468 14.1216 10.8468 14.5378V21.3324C10.8468 21.7486 11.1834 22.0853 11.5997 22.0853H18.3942C18.8104 22.0853 19.1471 21.7486 19.1471 21.3324V14.5378C19.1471 14.1216 18.8104 13.7849 18.3942 13.7849H15.7498V11.8445H25.0969V13.7849H22.4526C22.0363 13.7849 21.6997 14.1216 21.6997 14.5378V21.3324C21.6997 21.7486 22.0363 22.0853 22.4526 22.0853H29.2471C29.6633 22.0853 30 21.7486 30 21.3324V14.5378C30 14.1216 29.6633 13.7849 29.2471 13.7849H26.6027V11.0977C26.6027 10.6815 26.2661 10.3448 25.8498 10.3448H15.7498V8.30035H18.3942C18.8104 8.30035 19.1471 7.96368 19.1471 7.54744V0.752907C19.1471 0.336666 18.8104 0 18.3942 0H11.5997C11.1896 0 10.8529 0.336666 10.8529 0.752907ZM6.79453 20.5734H1.50582V15.2785H6.79453V20.5734ZM17.6413 20.5734H12.3465V15.2785H17.6413V20.5734ZM28.4881 20.5734H23.1993V15.2785H28.4942V20.5734H28.4881ZM12.3526 1.49969H17.6474V6.79453H12.3526V1.49969Z" fill="#4A4A4A"/>
</svg>
