<svg width="30" height="28" viewBox="0 0 30 28" fill="none" xmlns="http://www.w3.org/2000/svg">
<path d="M15.5624 0H0.881539C0.394686 0 0 0.394686 0 0.88148C0 1.36833 0.394686 1.76302 0.881539 1.76302H15.5624C16.0493 1.76302 16.444 1.36833 16.444 0.88148C16.4439 0.394686 16.0492 0 15.5624 0Z" transform="translate(0 22.3385)" fill="#4A4A4A"/>
<path d="M17.3077 0H0.881539C0.394686 0 0 0.394627 0 0.88148C0 1.36833 0.394686 1.76302 0.881539 1.76302H17.3077C17.7945 1.76302 18.1892 1.36833 18.1892 0.88148C18.1892 0.394627 17.7945 0 17.3077 0Z" transform="translate(0 18.5992)" fill="#4A4A4A"/>
<path d="M14.8497 0H0.881539C0.394686 0 0 0.394685 0 0.881538C0 1.36839 0.394686 1.76308 0.881539 1.76308H14.8497C15.3366 1.76308 15.7313 1.36839 15.7313 0.881538C15.7313 0.394685 15.3365 0 14.8497 0Z" transform="translate(0 14.9034)" fill="#4A4A4A"/>
<path d="M16.8234 0H0.881539C0.394686 0 0 0.394685 0 0.881539C0 1.36839 0.394686 1.76308 0.881539 1.76308H16.8234C17.3102 1.76308 17.7049 1.36839 17.7049 0.881539C17.7049 0.394685 17.3102 0 16.8234 0Z" transform="translate(0 11.1578)" fill="#4A4A4A"/>
<path d="M11.1817 0H0.881539C0.394686 0 0 0.394685 0 0.881538C0 1.36839 0.394686 1.76308 0.881539 1.76308H11.1817C11.6685 1.76308 12.0632 1.36839 12.0632 0.881538C12.0632 0.394685 11.6685 0 11.1817 0Z" transform="translate(0 7.46207)" fill="#4A4A4A"/>
<path d="M12.8859 0H0.881539C0.394686 0 0 0.394685 0 0.881538C0 1.36839 0.394686 1.76308 0.881539 1.76308H12.8859C13.3728 1.76308 13.7675 1.36839 13.7675 0.881538C13.7675 0.394685 13.3728 0 12.8859 0Z" transform="translate(0 3.70834)" fill="#4A4A4A"/>
<path d="M13.8462 5.30495L9.39993 0.858648L9.41001 0.848569C8.84171 0.28033 8.09452 -0.00238324 7.3481 1.909e-05C6.60121 -0.00267621 5.8535 0.280037 5.28497 0.848628C5.24794 0.885659 5.21571 0.925503 5.18671 0.966928L0.848799 5.30495C-0.282933 6.43669 -0.282933 8.27816 0.848799 9.40995C1.41469 9.97585 2.15795 10.2588 2.90133 10.2588C3.44361 10.2588 3.9856 10.1074 4.45898 9.80628V24.5333C4.45898 26.1338 5.7611 27.436 7.36169 27.436C8.96229 27.436 10.2644 26.1339 10.2644 24.5333V9.8238C10.7311 10.1132 11.2623 10.2587 11.7939 10.2587C12.5372 10.2587 13.2805 9.97585 13.8464 9.40989C14.9779 8.27816 14.9779 6.43669 13.8462 5.30495ZM12.5995 8.16326C12.1551 8.60757 11.4322 8.60757 10.9878 8.16326L10.0061 7.18158C9.98557 7.16096 9.96389 7.14151 9.94133 7.12299C9.93143 7.1149 9.921 7.10781 9.9108 7.1002C9.89797 7.09059 9.88543 7.08063 9.87201 7.07172C9.85959 7.06346 9.84676 7.05625 9.83405 7.04864C9.82209 7.04149 9.81037 7.03393 9.79807 7.02737C9.78506 7.02045 9.77176 7.01453 9.75846 7.00832C9.74563 7.00229 9.73303 6.99584 9.71985 6.99039C9.70696 6.98512 9.69389 6.98084 9.68082 6.9761C9.6667 6.97106 9.65281 6.96561 9.6384 6.96121C9.62539 6.95729 9.61221 6.95442 9.59909 6.95114C9.58432 6.94739 9.56979 6.94328 9.55473 6.9403C9.53973 6.93731 9.52467 6.93561 9.50956 6.93344C9.49614 6.93151 9.48301 6.92899 9.46942 6.92764C9.44211 6.92494 9.41469 6.92366 9.38727 6.92348C9.38569 6.92348 9.38416 6.92324 9.38258 6.92324C9.38065 6.92324 9.37877 6.92354 9.3769 6.92354C9.34989 6.92371 9.32276 6.92494 9.29587 6.92764C9.28192 6.92899 9.26844 6.93157 9.25467 6.93356C9.23997 6.93567 9.2252 6.93737 9.21067 6.94024C9.1952 6.94328 9.1802 6.9475 9.16508 6.95143C9.15237 6.95465 9.13965 6.95741 9.12706 6.96121C9.11212 6.96573 9.09776 6.97129 9.08317 6.97657C9.07063 6.98108 9.05803 6.98518 9.04567 6.99033C9.0319 6.99602 9.01872 7.00276 9.0053 7.00909C8.99264 7.01506 8.97993 7.02069 8.96751 7.02731C8.95438 7.03434 8.9419 7.04231 8.92913 7.04998C8.91723 7.05713 8.90516 7.06387 8.8935 7.0716C8.87886 7.08139 8.86509 7.09223 8.85102 7.10283C8.84218 7.10957 8.83292 7.11572 8.8243 7.12287C8.77913 7.15996 8.73765 7.20139 8.70061 7.24662C8.6937 7.255 8.68772 7.26397 8.68122 7.27258C8.67032 7.28688 8.65936 7.30094 8.64935 7.31594C8.64185 7.32725 8.63534 7.33891 8.62843 7.35045C8.62052 7.36357 8.61231 7.37641 8.60511 7.38994C8.59872 7.40195 8.59333 7.41426 8.58753 7.42645C8.58097 7.44027 8.57405 7.45393 8.56819 7.46811C8.56333 7.48 8.5594 7.49207 8.55501 7.50414C8.54956 7.5192 8.54376 7.53414 8.53913 7.54949C8.53556 7.56144 8.53292 7.57357 8.52981 7.5857C8.52577 7.60146 8.52144 7.61711 8.51821 7.6331C8.51552 7.64676 8.51399 7.66047 8.51194 7.67424C8.50978 7.68894 8.50708 7.70342 8.50562 7.7183C8.50327 7.74256 8.50233 7.76687 8.50192 7.79131C8.50186 7.79588 8.50122 7.80027 8.50122 7.8049V24.5334C8.50122 25.1618 7.98993 25.6731 7.36152 25.6731C6.73311 25.6731 6.22182 25.1618 6.22182 24.5334V7.77695C6.22182 7.75492 6.22012 7.7333 6.21854 7.71162C6.21807 7.70506 6.21818 7.69844 6.21754 7.69193C6.21555 7.67084 6.21203 7.65021 6.20852 7.62959C6.20723 7.62197 6.20653 7.6143 6.20506 7.60674C6.20114 7.58658 6.19586 7.56695 6.19053 7.54732C6.18836 7.5393 6.18672 7.53109 6.18432 7.52307C6.17875 7.50437 6.1719 7.48627 6.1651 7.46816C6.16182 7.45932 6.15901 7.45029 6.15531 7.44156C6.14828 7.4244 6.14008 7.40781 6.13199 7.39123C6.12748 7.38191 6.12344 7.37242 6.11846 7.36322C6.10967 7.34664 6.09971 7.33082 6.08992 7.31494C6.08465 7.30639 6.07979 7.29748 6.07416 7.2891C6.06174 7.27047 6.04821 7.25266 6.03444 7.23508C6.03045 7.22998 6.02699 7.22459 6.02283 7.21955C5.98545 7.17385 5.94362 7.13201 5.89791 7.09457C5.89147 7.0893 5.88455 7.08479 5.87793 7.07963C5.86182 7.06715 5.84565 7.05479 5.82866 7.04342C5.81828 7.03657 5.80762 7.03059 5.79702 7.0242C5.78301 7.01571 5.76924 7.00697 5.75477 6.99924C5.74323 6.99309 5.73139 6.98793 5.71967 6.98231C5.70543 6.97551 5.69143 6.96842 5.67672 6.96239C5.66489 6.95752 5.65287 6.95365 5.64092 6.94926C5.62586 6.94381 5.61098 6.93801 5.59551 6.93338C5.58315 6.92969 5.57067 6.927 5.55819 6.92377C5.54284 6.91985 5.52766 6.91563 5.51208 6.91246C5.49719 6.90953 5.48219 6.90778 5.46719 6.90561C5.45377 6.90368 5.44065 6.90116 5.42706 6.89981C5.36911 6.89412 5.31075 6.89412 5.2528 6.89981C5.24137 6.90092 5.23042 6.90309 5.21911 6.90467C5.20177 6.90707 5.18448 6.90912 5.16725 6.91258C5.15413 6.91516 5.14141 6.91885 5.12852 6.92201C5.11346 6.92571 5.09829 6.92905 5.08347 6.93362C5.07098 6.93742 5.05903 6.94211 5.04679 6.94645C5.03173 6.95172 5.01673 6.95676 5.00196 6.96285C4.99094 6.96742 4.98052 6.97276 4.96973 6.9778C4.95427 6.98494 4.93874 6.99192 4.92368 7C4.91407 7.00516 4.90499 7.01114 4.89561 7.01658C4.88014 7.02561 4.86468 7.03446 4.84974 7.04442C4.84048 7.05063 4.83181 7.05772 4.82278 7.06422C4.80854 7.07459 4.79425 7.08455 4.78054 7.09586C4.76847 7.10576 4.75733 7.11672 4.74579 7.12727C4.73618 7.13612 4.72605 7.1442 4.71673 7.15358L3.70693 8.16332C3.2625 8.60763 2.53957 8.60763 2.09514 8.16332C1.65083 7.719 1.65083 6.99596 2.09514 6.55159L6.55146 2.09526C6.77119 1.87554 7.05912 1.76491 7.34769 1.76245C7.63609 1.76503 7.92361 1.87571 8.14316 2.0952L12.5995 6.55147C13.0439 6.9959 13.0439 7.71894 12.5995 8.16326Z" transform="translate(15.3051)" fill="#4A4A4A"/>
</svg>
