<?xml version="1.0" standalone="no"?>
<!DOCTYPE svg PUBLIC "-//W3C//DTD SVG 20010904//EN"
 "http://www.w3.org/TR/2001/REC-SVG-20010904/DTD/svg10.dtd">
<svg version="1.0" xmlns="http://www.w3.org/2000/svg"
 width="490.000000pt" height="490.000000pt" viewBox="0 0 490.000000 490.000000"
 preserveAspectRatio="xMidYMid meet">
<metadata>
Created by potrace 1.11, written by Peter Selinger 2001-2013
</metadata>
<g transform="translate(0.000000,490.000000) scale(0.100000,-0.100000)"
fill="#000000" stroke="none">
<path d="M1599 3796 c-97 -34 -163 -109 -175 -197 l-7 -49 -458 0 c-427 0
-458 -1 -463 -17 -6 -22 -134 -579 -140 -613 -3 -14 -12 -54 -21 -90 -19 -74
-18 -72 -39 -160 -8 -36 -26 -112 -39 -170 -74 -312 -118 -505 -123 -547 -3
-26 -8 -51 -11 -55 -2 -5 -6 -19 -8 -31 -5 -26 -13 -61 -15 -64 -2 -2 -4 -7
-5 -13 -1 -5 -3 -11 -5 -12 -1 -2 -3 -16 -5 -33 -4 -33 -10 -66 -19 -105 -11
-43 -8 -145 4 -191 37 -135 143 -246 279 -289 60 -19 89 -20 604 -20 l541 0
54 37 54 38 249 0 c246 1 249 0 274 -22 13 -13 27 -23 31 -23 4 0 15 -7 25
-16 13 -12 53 -16 210 -19 279 -5 759 -5 1089 1 l285 5 135 35 c765 200 764
200 816 239 17 13 35 21 39 17 5 -4 5 -2 2 4 -3 6 7 25 23 42 16 18 26 32 23
32 -3 0 2 10 10 23 22 34 28 75 33 223 l4 131 -507 193 c-280 106 -510 196
-513 200 -3 3 -79 51 -170 105 -91 54 -171 104 -178 110 -7 7 -14 27 -14 44
-1 28 -8 37 -46 61 -44 27 -45 28 -74 10 l-30 -18 -99 62 c-97 59 -100 62 -95
94 3 30 0 35 -41 59 -43 25 -46 25 -77 10 -32 -15 -33 -15 -137 49 -101 62
-104 65 -104 100 -1 32 -6 39 -44 62 -41 24 -44 24 -76 9 -32 -15 -33 -15
-106 30 -161 98 -151 89 -134 124 15 29 15 32 -12 75 -26 43 -30 45 -65 41
l-36 -5 -88 122 c-48 66 -130 181 -183 254 l-95 132 -145 0 c-93 -1 -159 -6
-182 -14z"/>
</g>
</svg>
