<svg version="1.0" xmlns="http://www.w3.org/2000/svg" width="653.333" height="653.333" viewBox="0 0 490 490"><path d="M159.9 110.4c-9.7 3.4-16.3 10.9-17.5 19.7l-.7 4.9H95.9c-42.7 0-45.8.1-46.3 1.7-.6 2.2-13.4 57.9-14 61.3-.3 1.4-1.2 5.4-2.1 9-1.9 7.4-1.8 7.2-3.9 16-.8 3.6-2.6 11.2-3.9 17-7.4 31.2-11.8 50.5-12.3 54.7-.3 2.6-.8 5.1-1.1 5.5-.2.5-.6 1.9-.8 3.1-.5 2.6-1.3 6.1-1.5 6.4-.2.2-.4.7-.5 1.3-.1.5-.3 1.1-.5 1.2-.1.2-.3 1.6-.5 3.3-.4 3.3-1 6.6-1.9 10.5-1.1 4.3-.8 14.5.4 19.1 3.7 13.5 14.3 24.6 27.9 28.9 6 1.9 8.9 2 60.4 2h54.1l5.4-3.7 5.4-3.8h24.9c24.6-.1 24.9 0 27.4 2.2 1.3 1.3 2.7 2.3 3.1 2.3.4 0 1.5.7 2.5 1.6 1.3 1.2 5.3 1.6 21 1.9 27.9.5 75.9.5 108.9-.1l28.5-.5 13.5-3.5c76.5-20 76.4-20 81.6-23.9 1.7-1.3 3.5-2.1 3.9-1.7.5.4.5.2.2-.4-.3-.6.7-2.5 2.3-4.2 1.6-1.8 2.6-3.2 2.3-3.2-.3 0 .2-1 1-2.3 2.2-3.4 2.8-7.5 3.3-22.3l.4-13.1-50.7-19.3c-28-10.6-51-19.6-51.3-20-.3-.3-7.9-5.1-17-10.5s-17.1-10.4-17.8-11c-.7-.7-1.4-2.7-1.4-4.4-.1-2.8-.8-3.7-4.6-6.1-4.4-2.7-4.5-2.8-7.4-1l-3 1.8-9.9-6.2c-9.7-5.9-10-6.2-9.5-9.4.3-3 0-3.5-4.1-5.9-4.3-2.5-4.6-2.5-7.7-1-3.2 1.5-3.3 1.5-13.7-4.9-10.1-6.2-10.4-6.5-10.4-10-.1-3.2-.6-3.9-4.4-6.2-4.1-2.4-4.4-2.4-7.6-.9-3.2 1.5-3.3 1.5-10.6-3-16.1-9.8-15.1-8.9-13.4-12.4 1.5-2.9 1.5-3.2-1.2-7.5-2.6-4.3-3-4.5-6.5-4.1l-3.6.5-8.8-12.2c-4.8-6.6-13-18.1-18.3-25.4l-9.5-13.2h-14.5c-9.3.1-15.9.6-18.2 1.4z"/></svg>