<?xml version="1.0" encoding="utf-8"?><svg xmlns="http://www.w3.org/2000/svg" xmlns:xlink="http://www.w3.org/1999/xlink"><symbol viewBox="0 0 512 512" id="Habarovsk" xmlns="http://www.w3.org/2000/svg"><path d="M187.733 315.733a8.536 8.536 0 0 0 8.533 8.533H230.4a8.536 8.536 0 0 0 8.533-8.533v-51.2A8.536 8.536 0 0 0 230.4 256h-34.133a8.536 8.536 0 0 0-8.533 8.533v51.2zm17.067-42.666h17.067V307.2H204.8v-34.133zm-8.533-51.2H230.4a8.536 8.536 0 0 0 8.533-8.533v-51.2a8.536 8.536 0 0 0-8.533-8.533h-34.133a8.536 8.536 0 0 0-8.533 8.533v51.2c-.001 4.71 3.822 8.533 8.533 8.533zm8.533-51.2h17.067V204.8H204.8v-34.133z"/><path d="M132.395 160.913L256 86.75l123.605 74.163a8.48 8.48 0 0 0 4.386 1.22 8.519 8.519 0 0 0 7.322-4.139 8.528 8.528 0 0 0-2.918-11.708L264.533 71.97V17.067H307.2v17.067h-25.6a8.536 8.536 0 0 0-8.533 8.533A8.536 8.536 0 0 0 281.6 51.2h34.133a8.536 8.536 0 0 0 8.533-8.533V8.533A8.536 8.536 0 0 0 315.733 0H256a8.536 8.536 0 0 0-8.533 8.533V71.97l-123.861 74.317a8.528 8.528 0 0 0-2.918 11.708c2.414 4.036 7.67 5.35 11.707 2.918zM93.867 324.267a8.536 8.536 0 0 0 8.533-8.533v-51.2a8.536 8.536 0 0 0-8.533-8.533H59.733a8.536 8.536 0 0 0-8.533 8.533V281.6c0 4.71 3.823 8.533 8.533 8.533s8.533-3.823 8.533-8.533v-8.533h17.067v42.667c0 4.71 3.823 8.533 8.534 8.533zM153.6 435.2V187.733a8.536 8.536 0 0 0-8.533-8.533 8.536 8.536 0 0 0-8.533 8.533V435.2a8.536 8.536 0 0 0 8.533 8.533 8.536 8.536 0 0 0 8.533-8.533z"/><path d="M110.933 477.867h290.133c4.71 0 8.533-3.823 8.533-8.533s-3.823-8.533-8.533-8.533h-76.8v-85.333h8.533c4.71 0 8.533-3.823 8.533-8.533s-3.823-8.533-8.533-8.533H179.2c-4.71 0-8.533 3.823-8.533 8.533s3.823 8.533 8.533 8.533h8.533V460.8h-76.8c-4.71 0-8.533 3.823-8.533 8.533s3.823 8.534 8.533 8.534zm153.6-51.2c4.71 0 8.533-3.823 8.533-8.533s-3.823-8.533-8.533-8.533v-34.133H307.2V460.8h-42.667v-34.133zm-59.733-51.2h42.667V409.6c-4.71 0-8.533 3.823-8.533 8.533s3.823 8.533 8.533 8.533V460.8H204.8v-85.333zm247.467-8.534h-34.133a8.536 8.536 0 0 0-8.533 8.533v51.2a8.536 8.536 0 0 0 8.533 8.533h34.133a8.536 8.536 0 0 0 8.533-8.533v-51.2a8.536 8.536 0 0 0-8.533-8.533zm-8.534 51.2h-17.067V384h17.067v34.133zm8.534-153.6h-34.133a8.536 8.536 0 0 0-8.533 8.533v51.2a8.536 8.536 0 0 0 8.533 8.533h34.133a8.536 8.536 0 0 0 8.533-8.533v-51.2a8.536 8.536 0 0 0-8.533-8.533zm-8.534 51.2h-17.067V281.6h17.067v34.133zm-8.533 179.2H76.8c-4.71 0-8.533 3.823-8.533 8.533S72.09 512 76.8 512h358.4c4.71 0 8.533-3.823 8.533-8.533s-3.823-8.534-8.533-8.534z"/><path d="M503.467 187.733a8.536 8.536 0 0 0-8.533 8.533v8.533h-93.867a8.536 8.536 0 0 0-8.533 8.533 8.536 8.536 0 0 0 8.533 8.533h93.867v281.6c0 4.71 3.823 8.533 8.533 8.533s8.533-3.823 8.533-8.533v-307.2c0-4.709-3.823-8.532-8.533-8.532zm-230.4 128a8.536 8.536 0 0 0 8.533 8.533h34.133a8.536 8.536 0 0 0 8.533-8.533v-51.2a8.536 8.536 0 0 0-8.533-8.533H281.6a8.536 8.536 0 0 0-8.533 8.533v51.2zm17.066-42.666H307.2V307.2h-17.067v-34.133zm-204.8 145.066c0-1.109-.486-110.933-42.667-110.933C.486 307.2 0 417.024 0 418.133c0 20.608 14.686 37.837 34.133 41.805v43.529A8.536 8.536 0 0 0 42.666 512a8.536 8.536 0 0 0 8.533-8.533v-43.529c19.448-3.968 34.134-21.197 34.134-41.805zm-42.666 25.6c-14.114 0-25.6-11.486-25.6-25.6 0-42.513 11.418-93.867 25.6-93.867 14.182 0 25.6 51.354 25.6 93.867 0 14.114-11.486 25.6-25.6 25.6zm332.8-8.533v-256c0-4.71-3.823-8.533-8.533-8.533s-8.533 3.823-8.533 8.533v256c0 4.71 3.823 8.533 8.533 8.533s8.533-3.823 8.533-8.533zM281.6 221.867h34.133a8.536 8.536 0 0 0 8.533-8.533v-51.2a8.536 8.536 0 0 0-8.533-8.533H281.6a8.536 8.536 0 0 0-8.533 8.533v51.2a8.536 8.536 0 0 0 8.533 8.533zm8.533-51.2H307.2V204.8h-17.067v-34.133zm-281.6 128a8.536 8.536 0 0 0 8.533-8.533v-68.267h93.867a8.536 8.536 0 0 0 8.533-8.533 8.536 8.536 0 0 0-8.533-8.533H17.067v-8.533c0-4.71-3.823-8.533-8.533-8.533S0 191.556 0 196.267v93.867a8.536 8.536 0 0 0 8.533 8.533z"/></symbol><symbol viewBox="0 0 464.843 464.843" id="Msk" xmlns="http://www.w3.org/2000/svg"><path d="M231.671 262.343c-15.991 0-29 13.01-29 29s13.009 29 29 29 29-13.01 29-29-13.009-29-29-29zm0 50c-11.58 0-21-9.421-21-21s9.42-21 21-21 21 9.421 21 21-9.42 21-21 21zm-46 68a4 4 0 0 0-4 4v12a4 4 0 0 0 8 0v-12a4 4 0 0 0-4-4zm23.25 0a4 4 0 0 0-4 4v12a4 4 0 0 0 8 0v-12a4 4 0 0 0-4-4zm23.25 0a4 4 0 0 0-4 4v12a4 4 0 0 0 8 0v-12a4 4 0 0 0-4-4zm23.25 0a4 4 0 0 0-4 4v12a4 4 0 0 0 8 0v-12a4 4 0 0 0-4-4zm23.25 0a4 4 0 0 0-4 4v12a4 4 0 0 0 8 0v-12a4 4 0 0 0-4-4zM218.645 16.132l5.961 2.329-3.454 5.388a4.001 4.001 0 0 0 6.462 4.696l4.057-4.95 4.057 4.95c.799.974 1.978 1.453 3.143 1.464a4 4 0 0 0 3.125-6.46l-3.261-5.087 5.961-2.329a4 4 0 0 0-2.468-7.596l-6.191 1.62-.373-6.39a4 4 0 0 0-7.986 0l-.373 6.39-6.191-1.62a4 4 0 1 0-2.469 7.595z"/><path d="M397.987 360.278a3.997 3.997 0 0 0-4.168.329l-10.688 7.773-10.698-7.773a3.998 3.998 0 0 0-4.167-.328 4.003 4.003 0 0 0-2.184 3.565v26.5h-16.15v-26.5a4 4 0 0 0-6.353-3.236l-10.688 7.773-10.688-7.773a4.001 4.001 0 0 0-6.352 3.236v26.5h-16.18v-59.5a4 4 0 0 0-4-4h-2v-19.067a4 4 0 0 0-8 0v19.067h-5.5v-75a4 4 0 0 0-4-4h-7v-91.5a4 4 0 0 0-4-4h-7.959l-21.61-114.493a4 4 0 0 0-7.862 0l-21.61 114.492h-7.959a4 4 0 0 0-4 4v91.5h-7a4 4 0 0 0-4 4v75h-6v-19.067a4 4 0 0 0-8 0v19.067h-2a4 4 0 0 0-4 4v59.5h-14.18v-26.5a4 4 0 0 0-6.353-3.236l-10.688 7.773-10.688-7.773a4.001 4.001 0 0 0-6.353 3.236v26.5h-16.15v-26.5a4.003 4.003 0 0 0-2.184-3.565 4.004 4.004 0 0 0-4.167.328l-10.697 7.773-10.688-7.773a4.001 4.001 0 0 0-6.353 3.236v97a4 4 0 0 0 4 4h327.5a4 4 0 0 0 4-4v-97a3.998 3.998 0 0 0-2.183-3.564zm-226.816-25.435h19.75v28.2a4 4 0 0 0 8 0v-28.2h28.5v28.2a4 4 0 0 0 8 0v-28.2h28.5v28.2a4 4 0 0 0 8 0v-28.2h19.75v85h-120.5v-85zm90-119.5h-11v-55h11v55zm-19-55v55h-21v-55h21zm-10.5-100.184l17.4 92.184h-34.8l17.4-92.184zm-18.5 100.184v55h-11v-55h11zm-11 63h59v24.5h-59v-24.5zm-11 32.5h81v71h-81v-71zm-118.5 115.854l6.688 4.863a4.003 4.003 0 0 0 4.704.001l6.699-4.868v22.649a4 4 0 0 0 4 4h24.15a4 4 0 0 0 4-4v-22.646l6.688 4.863a4 4 0 0 0 4.705 0l6.688-4.863v22.646a4 4 0 0 0 4 4h18.18v58.5h-90.5v-85.145zm98.5 85.146v-29h120.5v29h-120.5zm221 0h-92.5v-58.5h20.18a4 4 0 0 0 4-4v-22.646l6.688 4.863a4 4 0 0 0 4.705 0l6.688-4.863v22.646a4 4 0 0 0 4 4h24.15a4 4 0 0 0 4-4v-22.649l6.699 4.868a4.001 4.001 0 0 0 4.704-.001l6.688-4.863v85.145z"/><path d="M241.671 287.343h-6v-6.125a4 4 0 0 0-8 0v10.125a4 4 0 0 0 4 4h10a4 4 0 0 0 0-8z"/></symbol><symbol viewBox="0 0 512 512" id="Spb" xmlns="http://www.w3.org/2000/svg"><path d="M503.551 448.271h-11.494V247.192a8.449 8.449 0 0 0-8.449-8.449h-14.043c-3.776-14.901-17.301-25.959-33.359-25.959s-29.584 11.058-33.359 25.959h-.315c-3.776-14.901-17.297-25.959-33.356-25.959-15.908 0-29.261 10.853-33.183 25.543v-49.233c0-34.317-22.028-63.573-52.68-74.411l-18.06-46.393a8.45 8.45 0 0 0-15.748 0l-17.968 46.16c-31.009 10.642-53.367 40.071-53.367 74.643v49.233c-3.922-14.689-17.275-25.543-33.183-25.543-16.059 0-29.58 11.058-33.356 25.959h-.315c-3.776-14.901-17.301-25.959-33.359-25.959s-29.582 11.059-33.357 25.96H30.556a8.449 8.449 0 0 0-8.449 8.449v201.079H8.449A8.449 8.449 0 0 0 0 456.72a8.449 8.449 0 0 0 8.449 8.449h495.102A8.449 8.449 0 0 0 512 456.72a8.449 8.449 0 0 0-8.449-8.449zM369.174 229.682c6.594 0 12.347 3.664 15.333 9.061H353.84c2.987-5.398 8.741-9.061 15.334-9.061zm-50.655-49.038h-20.585c-.9-17.799-4.634-33.493-10.38-45.53 16.48 9.34 28.292 25.995 30.965 45.53zm.512 16.898v41.201H303.27v-15.209c0-4.666-3.782-8.449-8.449-8.449s-8.449 3.783-8.449 8.449v15.209h-20.903v-41.201h53.562zM257.378 94.648l6.159 15.82a79.202 79.202 0 0 0-6.455-.286c-1.967 0-3.911.097-5.842.239l6.138-15.773zm-.297 32.433c9.328 0 22.053 20.168 23.926 53.563h-47.851c1.872-33.394 14.597-53.563 23.925-53.563zm-30.474 8.032c-5.745 12.037-9.479 27.732-10.38 45.53h-20.585c2.674-19.534 14.486-36.189 30.965-45.53zm-31.476 62.429h53.44v41.201H227.79v-15.209a8.449 8.449 0 0 0-8.449-8.449 8.449 8.449 0 0 0-8.449 8.449v15.209h-15.761v-41.201zm-50.143 32.14c6.594 0 12.347 3.664 15.333 9.061h-30.666c2.986-5.398 8.74-9.061 15.333-9.061zm-105.983 77.4h87.394v112.729H90.542v-42.823c0-12.837-10.444-23.283-23.284-23.283-12.838 0-23.283 10.444-23.283 23.283v42.823h-4.97V307.082zm34.639 69.906v42.823h-12.77v-42.823c0-3.521 2.864-6.384 6.384-6.384s6.386 2.863 6.386 6.384zm17.491 71.283h-52.13v-11.562h56.212l-4.082 11.562zm17.922 0l4.083-11.562h284.512l4.083 11.562H109.057zm34.241-28.46V307.082h6.759v112.729h-6.759zm23.658 0V307.082h33.046v112.729h-33.046zm49.944 0V307.082h6.759v112.729H216.9zm8.487-129.627l31.694-14.12 31.694 14.12h-63.388zm48.217 16.898v112.729h-33.047V307.082h33.047zm16.899 112.729V307.082h6.759v112.729h-6.759zm23.658 0V307.082h33.046v112.729h-33.046zm49.944 0V307.082h6.759v112.729h-6.759zm111.052 28.46h-55.503l-4.083-11.562h59.585v11.562zm-42.517-28.46v-42.823c0-3.521 2.864-6.384 6.384-6.384s6.385 2.864 6.385 6.384v42.823H432.64zm42.517 0h-12.849v-42.823c0-12.838-10.444-23.283-23.284-23.283-12.838 0-23.283 10.444-23.283 23.283v42.823h-27.979V307.082h87.394v112.729zm0-129.627H330.299l-69.779-31.088a8.458 8.458 0 0 0-6.877 0l-69.779 31.088H39.005v-34.543h12.993a8.449 8.449 0 0 0 8.449-8.449c0-9.655 7.856-17.51 17.51-17.51s17.51 7.856 17.51 17.51a8.449 8.449 0 0 0 8.449 8.449h306.329a8.449 8.449 0 0 0 8.449-8.449c0-9.655 7.855-17.51 17.51-17.51 9.655 0 17.51 7.856 17.51 17.51a8.449 8.449 0 0 0 8.449 8.449h12.993v34.543zm28.394 190.193H8.449A8.449 8.449 0 0 0 0 488.826a8.449 8.449 0 0 0 8.449 8.449h495.102a8.45 8.45 0 0 0 0-16.898z"/><path d="M122.05 14.724c-35.873 0-65.057 29.184-65.057 65.057s29.184 65.056 65.057 65.056c35.872 0 65.056-29.184 65.056-65.057-.001-35.873-29.184-65.056-65.056-65.056zm0 113.215c-26.554 0-48.158-21.604-48.158-48.16 0-26.555 21.604-48.157 48.158-48.157s48.157 21.603 48.157 48.158-21.603 48.159-48.157 48.159zm352.769-26.16h-41.135a25.665 25.665 0 0 0 1.573-8.872c0-14.209-11.561-25.769-25.769-25.769h-59.711c-14.208 0-25.769 11.56-25.769 25.769.001 14.209 11.562 25.77 25.77 25.77h.874a25.668 25.668 0 0 0-1.573 8.871c0 14.209 11.561 25.769 25.77 25.769h99.97c14.209 0 25.77-11.56 25.77-25.769s-11.561-25.769-25.77-25.769zm0 34.64h-99.97c-4.892 0-8.872-3.979-8.872-8.871s3.98-8.871 8.872-8.871a8.449 8.449 0 0 0 8.449-8.449 8.449 8.449 0 0 0-8.449-8.449h-25.072c-4.892 0-8.871-3.98-8.871-8.872s3.98-8.871 8.871-8.871h59.711c4.892 0 8.871 3.979 8.871 8.871s-3.979 8.872-8.871 8.872a8.449 8.449 0 0 0-8.449 8.449 8.449 8.449 0 0 0 8.449 8.449h65.331c4.893 0 8.872 3.979 8.872 8.871s-3.98 8.871-8.872 8.871z"/><circle cx="436.769" cy="245.411" r="8.449"/><circle cx="77.958" cy="245.411" r="8.449"/></symbol><symbol viewBox="0 0 512 512" id="Vladivostok" xmlns="http://www.w3.org/2000/svg"><path d="M324.267 332.8c0-4.71-3.823-8.533-8.533-8.533s-8.533 3.823-8.533 8.533v17.067c0 4.71 3.823 8.533 8.533 8.533s8.533-3.823 8.533-8.533V332.8zm-8.534 93.867a8.536 8.536 0 0 0-8.533 8.533v34.133c0 4.71 3.823 8.533 8.533 8.533s8.533-3.823 8.533-8.533V435.2c.001-4.71-3.822-8.533-8.533-8.533zM358.4 230.4c0-4.71-3.823-8.533-8.533-8.533s-8.533 3.823-8.533 8.533v17.067c0 4.71 3.823 8.533 8.533 8.533s8.533-3.823 8.533-8.533V230.4zm-34.133 51.2c0-4.71-3.823-8.533-8.533-8.533s-8.533 3.823-8.533 8.533v17.067c0 4.71 3.823 8.533 8.533 8.533s8.533-3.823 8.533-8.533V281.6zm0 102.4c0-4.71-3.823-8.533-8.533-8.533S307.2 379.29 307.2 384v17.067c0 4.71 3.823 8.533 8.533 8.533s8.533-3.823 8.533-8.533V384zM358.4 281.6c0-4.71-3.823-8.533-8.533-8.533s-8.533 3.823-8.533 8.533v17.067c0 4.71 3.823 8.533 8.533 8.533s8.533-3.823 8.533-8.533V281.6zm-68.267-51.2c0-4.71-3.823-8.533-8.533-8.533s-8.533 3.823-8.533 8.533v17.067c0 4.71 3.823 8.533 8.533 8.533s8.533-3.823 8.533-8.533V230.4zm34.134 0c0-4.71-3.823-8.533-8.533-8.533s-8.533 3.823-8.533 8.533v17.067c0 4.71 3.823 8.533 8.533 8.533s8.533-3.823 8.533-8.533V230.4zm34.133-85.333V128c0-4.71-3.823-8.533-8.533-8.533s-8.533 3.823-8.533 8.533v17.067c0 4.71 3.823 8.533 8.533 8.533s8.533-3.823 8.533-8.533zM290.133 281.6c0-4.71-3.823-8.533-8.533-8.533s-8.533 3.823-8.533 8.533v17.067c0 4.71 3.823 8.533 8.533 8.533s8.533-3.823 8.533-8.533V281.6zm102.4-153.6c0-4.71-3.823-8.533-8.533-8.533s-8.533 3.823-8.533 8.533v17.067c0 4.71 3.823 8.533 8.533 8.533s8.533-3.823 8.533-8.533V128zM281.6 324.267a8.536 8.536 0 0 0-8.533 8.533v17.067c0 4.71 3.823 8.533 8.533 8.533s8.533-3.823 8.533-8.533V332.8a8.536 8.536 0 0 0-8.533-8.533zM426.667 384c0-4.71-3.823-8.533-8.533-8.533S409.6 379.29 409.6 384v17.067c0 4.71 3.823 8.533 8.533 8.533s8.533-3.823 8.533-8.533V384zm-8.534 42.667a8.536 8.536 0 0 0-8.533 8.533v34.133c0 4.71 3.823 8.533 8.533 8.533s8.533-3.823 8.533-8.533V435.2c.001-4.71-3.822-8.533-8.533-8.533zm34.134-102.4a8.536 8.536 0 0 0-8.533 8.533v17.067a8.536 8.536 0 0 0 8.533 8.533 8.536 8.536 0 0 0 8.533-8.533V332.8a8.536 8.536 0 0 0-8.533-8.533z"/><path d="M315.733 153.6a8.536 8.536 0 0 0 8.533-8.533v-36.002L409.6 87.731V230.4a8.55 8.55 0 0 0 5.538 7.996l62.729 23.518v87.953c0 4.71 3.823 8.533 8.533 8.533s8.533-3.823 8.533-8.533V256a8.55 8.55 0 0 0-5.538-7.996l-62.729-23.518V59.733c0-4.71-3.823-8.533-8.533-8.533s-8.533 3.823-8.533 8.533v10.402l-95.94 23.987a8.528 8.528 0 0 0-6.46 8.277v42.667c0 4.711 3.823 8.534 8.533 8.534z"/><path d="M460.8 281.6a8.536 8.536 0 0 0-8.533-8.533 8.536 8.536 0 0 0-8.533 8.533v17.067a8.536 8.536 0 0 0 8.533 8.533 8.536 8.536 0 0 0 8.533-8.533V281.6zm-34.133 0c0-4.71-3.823-8.533-8.533-8.533s-8.533 3.823-8.533 8.533v17.067c0 4.71 3.823 8.533 8.533 8.533s8.533-3.823 8.533-8.533V281.6zM358.4 384c0-4.71-3.823-8.533-8.533-8.533s-8.533 3.823-8.533 8.533v17.067c0 4.71 3.823 8.533 8.533 8.533s8.533-3.823 8.533-8.533V384zm68.267-51.2c0-4.71-3.823-8.533-8.533-8.533s-8.533 3.823-8.533 8.533v17.067c0 4.71 3.823 8.533 8.533 8.533s8.533-3.823 8.533-8.533V332.8zm-76.8 93.867a8.536 8.536 0 0 0-8.533 8.533v34.133c0 4.71 3.823 8.533 8.533 8.533s8.533-3.823 8.533-8.533V435.2a8.536 8.536 0 0 0-8.533-8.533zM358.4 332.8c0-4.71-3.823-8.533-8.533-8.533s-8.533 3.823-8.533 8.533v17.067c0 4.71 3.823 8.533 8.533 8.533s8.533-3.823 8.533-8.533V332.8z"/><path d="M384 477.867a8.536 8.536 0 0 0 8.533-8.533V196.267a8.536 8.536 0 0 0-6.46-8.277L249.54 153.856a8.546 8.546 0 0 0-7.322 1.553 8.518 8.518 0 0 0-3.285 6.724v187.733c0 4.71 3.823 8.533 8.533 8.533s8.533-3.823 8.533-8.533V173.065l119.467 29.867v266.402c.001 4.71 3.824 8.533 8.534 8.533zM187.733 179.2c0-4.71-3.823-8.533-8.533-8.533s-8.533 3.823-8.533 8.533v17.067c0 4.71 3.823 8.533 8.533 8.533s8.533-3.823 8.533-8.533V179.2zm0-51.2c0-4.71-3.823-8.533-8.533-8.533s-8.533 3.823-8.533 8.533v17.067c0 4.71 3.823 8.533 8.533 8.533s8.533-3.823 8.533-8.533V128zm-68.266 256c0-4.71-3.823-8.533-8.533-8.533S102.4 379.29 102.4 384v17.067c0 4.71 3.823 8.533 8.533 8.533s8.533-3.823 8.533-8.533V384z"/><path d="M42.667 307.2a8.536 8.536 0 0 0 8.533-8.533V256h85.333v213.333a8.536 8.536 0 0 0 8.533 8.533 8.536 8.536 0 0 0 8.533-8.533V247.467a8.536 8.536 0 0 0-8.533-8.533h-102.4a8.536 8.536 0 0 0-8.533 8.533v51.2c0 4.71 3.823 8.533 8.534 8.533zm93.866-128v17.067a8.536 8.536 0 0 0 8.533 8.533 8.536 8.536 0 0 0 8.533-8.533V179.2a8.536 8.536 0 0 0-8.533-8.533 8.536 8.536 0 0 0-8.533 8.533zm51.2-102.4c0-4.71-3.823-8.533-8.533-8.533s-8.533 3.823-8.533 8.533v17.067c0 4.71 3.823 8.533 8.533 8.533s8.533-3.823 8.533-8.533V76.8z"/><path d="M110.933 426.667a8.536 8.536 0 0 0-8.533 8.533v34.133c0 4.71 3.823 8.533 8.533 8.533s8.533-3.823 8.533-8.533V435.2c.001-4.71-3.822-8.533-8.533-8.533z"/><path d="M503.467 494.933H486.4v-52.412c14.677-3.814 25.6-17.067 25.6-32.922 0-18.825-15.309-34.133-34.133-34.133s-34.133 15.309-34.133 34.133c0 15.855 10.923 29.107 25.6 32.922v52.412H256v-34.995c19.447-3.968 34.133-21.197 34.133-41.805 0-23.526-19.14-42.667-42.667-42.667-23.526 0-42.667 19.14-42.667 42.667 0 20.608 14.686 37.837 34.133 41.805v34.995H51.2v-86.195c19.447-3.968 34.133-21.197 34.133-41.805 0-23.526-19.14-42.667-42.667-42.667C19.14 324.267 0 343.407 0 366.933c0 20.608 14.686 37.837 34.133 41.805v86.195h-25.6c-4.71 0-8.533 3.823-8.533 8.533S3.823 512 8.533 512h494.933c4.71 0 8.533-3.823 8.533-8.533s-3.822-8.534-8.532-8.534zm-486.4-128c0-14.114 11.486-25.6 25.6-25.6s25.6 11.486 25.6 25.6-11.486 25.6-25.6 25.6-25.6-11.486-25.6-25.6zm204.8 51.2c0-14.114 11.486-25.6 25.6-25.6s25.6 11.486 25.6 25.6-11.486 25.6-25.6 25.6-25.6-11.486-25.6-25.6zM460.8 409.6c0-9.412 7.654-17.067 17.067-17.067s17.067 7.654 17.067 17.067c0 9.412-7.654 17.067-17.067 17.067S460.8 419.012 460.8 409.6z"/><path d="M68.267 435.2v34.133c0 4.71 3.823 8.533 8.533 8.533s8.533-3.823 8.533-8.533V435.2c0-4.71-3.823-8.533-8.533-8.533s-8.533 3.823-8.533 8.533zm51.2-153.6c0-4.71-3.823-8.533-8.533-8.533s-8.533 3.823-8.533 8.533v17.067c0 4.71 3.823 8.533 8.533 8.533s8.533-3.823 8.533-8.533V281.6zm0 51.2c0-4.71-3.823-8.533-8.533-8.533s-8.533 3.823-8.533 8.533v17.067c0 4.71 3.823 8.533 8.533 8.533s8.533-3.823 8.533-8.533V332.8zm-51.2-51.2v17.067c0 4.71 3.823 8.533 8.533 8.533s8.533-3.823 8.533-8.533V281.6c0-4.71-3.823-8.533-8.533-8.533s-8.533 3.823-8.533 8.533zm119.466 51.2c0-4.71-3.823-8.533-8.533-8.533s-8.533 3.823-8.533 8.533v17.067c0 4.71 3.823 8.533 8.533 8.533s8.533-3.823 8.533-8.533V332.8zm34.134-102.4a8.536 8.536 0 0 0-8.533-8.533 8.536 8.536 0 0 0-8.533 8.533v17.067a8.536 8.536 0 0 0 8.533 8.533 8.536 8.536 0 0 0 8.533-8.533V230.4zm0-51.2a8.536 8.536 0 0 0-8.533-8.533 8.536 8.536 0 0 0-8.533 8.533v17.067a8.536 8.536 0 0 0 8.533 8.533 8.536 8.536 0 0 0 8.533-8.533V179.2zm0 102.4a8.536 8.536 0 0 0-8.533-8.533 8.536 8.536 0 0 0-8.533 8.533v17.067a8.536 8.536 0 0 0 8.533 8.533 8.536 8.536 0 0 0 8.533-8.533V281.6zm-8.534 42.667a8.536 8.536 0 0 0-8.533 8.533v17.067a8.536 8.536 0 0 0 8.533 8.533 8.536 8.536 0 0 0 8.533-8.533V332.8c.001-4.71-3.822-8.533-8.533-8.533zM221.867 128a8.536 8.536 0 0 0-8.533-8.533 8.536 8.536 0 0 0-8.533 8.533v17.067a8.536 8.536 0 0 0 8.533 8.533 8.536 8.536 0 0 0 8.533-8.533V128zm-34.134 256c0-4.71-3.823-8.533-8.533-8.533s-8.533 3.823-8.533 8.533v17.067c0 4.71 3.823 8.533 8.533 8.533s8.533-3.823 8.533-8.533V384z"/><path d="M110.933 221.867a8.536 8.536 0 0 0 8.533-8.533V150.34l29.414-14.703a8.542 8.542 0 0 0 4.719-7.637V56.474l42.667-21.333 42.667 21.333V128c0 4.71 3.823 8.533 8.533 8.533S256 132.71 256 128V51.2a8.541 8.541 0 0 0-4.719-7.637L204.8 20.326V8.533c0-4.71-3.823-8.533-8.533-8.533s-8.533 3.823-8.533 8.533v11.793l-46.481 23.236a8.542 8.542 0 0 0-4.719 7.637v71.526l-29.414 14.703a8.542 8.542 0 0 0-4.719 7.637v68.267c-.001 4.712 3.822 8.535 8.532 8.535zm76.8 59.733c0-4.71-3.823-8.533-8.533-8.533s-8.533 3.823-8.533 8.533v17.067c0 4.71 3.823 8.533 8.533 8.533s8.533-3.823 8.533-8.533V281.6zM179.2 426.667a8.536 8.536 0 0 0-8.533 8.533v34.133c0 4.71 3.823 8.533 8.533 8.533s8.533-3.823 8.533-8.533V435.2a8.536 8.536 0 0 0-8.533-8.533z"/><path d="M221.867 76.8a8.536 8.536 0 0 0-8.533-8.533 8.536 8.536 0 0 0-8.533 8.533v17.067a8.536 8.536 0 0 0 8.533 8.533 8.536 8.536 0 0 0 8.533-8.533V76.8zm-34.134 153.6c0-4.71-3.823-8.533-8.533-8.533s-8.533 3.823-8.533 8.533v17.067c0 4.71 3.823 8.533 8.533 8.533s8.533-3.823 8.533-8.533V230.4z"/></symbol><symbol viewBox="0 0 284.935 284.936" id="angle-reset" xmlns="http://www.w3.org/2000/svg"><path d="M222.701 135.9L89.652 2.857C87.748.955 85.557 0 83.084 0c-2.474 0-4.664.955-6.567 2.857L62.244 17.133c-1.906 1.903-2.855 4.089-2.855 6.567 0 2.478.949 4.664 2.855 6.567l112.204 112.204L62.244 254.677c-1.906 1.903-2.855 4.093-2.855 6.564 0 2.477.949 4.667 2.855 6.57l14.274 14.271c1.903 1.905 4.093 2.854 6.567 2.854 2.473 0 4.663-.951 6.567-2.854l133.042-133.044c1.902-1.902 2.854-4.093 2.854-6.567s-.945-4.664-2.847-6.571z"/></symbol><symbol viewBox="0 0 451.846 451.847" id="arrow" xmlns="http://www.w3.org/2000/svg"><path d="M345.441 248.292L151.154 442.573c-12.359 12.365-32.397 12.365-44.75 0-12.354-12.354-12.354-32.391 0-44.744L278.318 225.92 106.409 54.017c-12.354-12.359-12.354-32.394 0-44.748 12.354-12.359 32.391-12.359 44.75 0l194.287 194.284c6.177 6.18 9.262 14.271 9.262 22.366 0 8.099-3.091 16.196-9.267 22.373z"/></symbol><symbol viewBox="0 0 284.929 284.929" id="arrow_left_double" xmlns="http://www.w3.org/2000/svg"><path d="M165.304 142.468L277.517 30.267c1.902-1.903 2.847-4.093 2.847-6.567 0-2.475-.951-4.665-2.847-6.567L263.239 2.857C261.337.955 259.146 0 256.676 0c-2.478 0-4.665.955-6.571 2.857L117.057 135.9c-1.903 1.903-2.853 4.093-2.853 6.567 0 2.475.95 4.664 2.853 6.567l133.048 133.043c1.903 1.906 4.086 2.851 6.564 2.851 2.478 0 4.66-.947 6.563-2.851l14.277-14.267c1.902-1.903 2.851-4.094 2.851-6.57 0-2.472-.948-4.661-2.851-6.564L165.304 142.468z"/><path d="M55.668 142.468L167.87 30.267c1.903-1.903 2.851-4.093 2.851-6.567 0-2.475-.947-4.665-2.851-6.567L153.6 2.857C151.697.955 149.507 0 147.036 0c-2.478 0-4.668.955-6.57 2.857L7.417 135.9c-1.903 1.903-2.853 4.093-2.853 6.567 0 2.475.95 4.664 2.853 6.567l133.048 133.043c1.902 1.906 4.09 2.851 6.57 2.851 2.471 0 4.661-.947 6.563-2.851l14.271-14.267c1.903-1.903 2.851-4.094 2.851-6.57 0-2.472-.947-4.661-2.851-6.564L55.668 142.468z"/></symbol><symbol viewBox="0 0 284.936 284.936" id="arrow_right_double" xmlns="http://www.w3.org/2000/svg"><path d="M277.515 135.9L144.464 2.857C142.565.955 140.375 0 137.9 0c-2.472 0-4.659.955-6.562 2.857l-14.277 14.275c-1.903 1.903-2.853 4.089-2.853 6.567 0 2.478.95 4.664 2.853 6.567L229.268 142.47 117.062 254.677c-1.903 1.903-2.853 4.093-2.853 6.564 0 2.477.95 4.667 2.853 6.57l14.277 14.271c1.902 1.905 4.089 2.854 6.562 2.854 2.478 0 4.665-.951 6.563-2.854l133.051-133.044c1.902-1.902 2.851-4.093 2.851-6.567s-.949-4.664-2.851-6.571z"/><path d="M170.732 142.471c0-2.474-.947-4.665-2.857-6.571L34.833 2.857C32.931.955 30.741 0 28.267 0S23.602.955 21.7 2.857L7.426 17.133C5.52 19.036 4.57 21.222 4.57 23.7c0 2.478.95 4.664 2.856 6.567L119.63 142.471 7.426 254.677c-1.906 1.903-2.856 4.093-2.856 6.564 0 2.477.95 4.667 2.856 6.57l14.273 14.271c1.903 1.905 4.093 2.854 6.567 2.854s4.664-.951 6.567-2.854l133.042-133.044c1.91-1.902 2.857-4.093 2.857-6.567z"/></symbol><symbol viewBox="0 0 482.9 482.9" id="avatar" xmlns="http://www.w3.org/2000/svg"><path d="M239.7 260.2h3.2c29.3-.5 53-10.8 70.5-30.5 38.5-43.4 32.1-117.8 31.4-124.9-2.5-53.3-27.7-78.8-48.5-90.7C280.8 5.2 262.7.4 242.5 0h-1.7c-11.1 0-32.9 1.8-53.8 13.7-21 11.9-46.6 37.4-49.1 91.1-.7 7.1-7.1 81.5 31.4 124.9 17.4 19.7 41.1 30 70.4 30.5zm-75.1-152.9c0-.3.1-.6.1-.8 3.3-71.7 54.2-79.4 76-79.4h1.2c27 .6 72.9 11.6 76 79.4 0 .3 0 .6.1.8.1.7 7.1 68.7-24.7 104.5-12.6 14.2-29.4 21.2-51.5 21.4h-1c-22-.2-38.9-7.2-51.4-21.4-31.7-35.6-24.9-103.9-24.8-104.5z"/><path d="M446.8 383.6v-.3c0-.8-.1-1.6-.1-2.5-.6-19.8-1.9-66.1-45.3-80.9-.3-.1-.7-.2-1-.3-45.1-11.5-82.6-37.5-83-37.8-6.1-4.3-14.5-2.8-18.8 3.3-4.3 6.1-2.8 14.5 3.3 18.8 1.7 1.2 41.5 28.9 91.3 41.7 23.3 8.3 25.9 33.2 26.6 56 0 .9 0 1.7.1 2.5.1 9-.5 22.9-2.1 30.9-16.2 9.2-79.7 41-176.3 41-96.2 0-160.1-31.9-176.4-41.1-1.6-8-2.3-21.9-2.1-30.9 0-.8.1-1.6.1-2.5.7-22.8 3.3-47.7 26.6-56 49.8-12.8 89.6-40.6 91.3-41.7 6.1-4.3 7.6-12.7 3.3-18.8-4.3-6.1-12.7-7.6-18.8-3.3-.4.3-37.7 26.3-83 37.8-.4.1-.7.2-1 .3-43.4 14.9-44.7 61.2-45.3 80.9 0 .9 0 1.7-.1 2.5v.3c-.1 5.2-.2 31.9 5.1 45.3 1 2.6 2.8 4.8 5.2 6.3 3 2 74.9 47.8 195.2 47.8s192.2-45.9 195.2-47.8c2.3-1.5 4.2-3.7 5.2-6.3 5-13.3 4.9-40 4.8-45.2z"/></symbol><symbol viewBox="0 0 486.569 486.569" id="cart" xmlns="http://www.w3.org/2000/svg"><path d="M146.069 320.369h268.1c30.4 0 55.2-24.8 55.2-55.2v-114c0-.2 0-.4-.1-.6 0-.2-.1-.5-.1-.7s-.1-.4-.1-.6c-.1-.2-.1-.4-.2-.7-.1-.2-.1-.4-.2-.6-.1-.2-.1-.4-.2-.6-.1-.2-.2-.4-.3-.7-.1-.2-.2-.4-.3-.5l-.3-.6c-.1-.2-.2-.3-.3-.5-.1-.2-.3-.4-.4-.6-.1-.2-.2-.3-.4-.5-.1-.2-.3-.3-.4-.5s-.3-.3-.4-.5-.3-.3-.4-.4l-.5-.5c-.2-.1-.3-.3-.5-.4-.2-.1-.4-.3-.6-.4-.2-.1-.3-.2-.5-.3s-.4-.2-.6-.4l-.6-.3-.6-.3-.6-.3c-.2-.1-.4-.1-.6-.2-.2-.1-.5-.2-.7-.2s-.4-.1-.5-.1c-.3-.1-.5-.1-.8-.1-.1 0-.2-.1-.4-.1l-339.8-46.9v-47.4c0-.5 0-1-.1-1.4 0-.1 0-.2-.1-.4 0-.3-.1-.6-.1-.9-.1-.3-.1-.5-.2-.8 0-.2-.1-.3-.1-.5l-.3-.9c0-.1-.1-.3-.1-.4-.1-.3-.2-.5-.4-.8-.1-.1-.1-.3-.2-.4-.1-.2-.2-.4-.4-.6-.1-.2-.2-.3-.3-.5s-.2-.3-.3-.5-.3-.4-.4-.6l-.3-.3-.6-.6-.3-.3c-.2-.2-.4-.4-.7-.6-.1-.1-.3-.2-.4-.3-.2-.2-.4-.3-.6-.5-.3-.2-.6-.4-.8-.5-.1-.1-.2-.1-.3-.2-.4-.2-.9-.4-1.3-.6l-73.7-31c-6.9-2.9-14.8.3-17.7 7.2s.3 14.8 7.2 17.7l65.4 27.6v295.8c0 28 21 51.2 48.1 54.7-4.9 8.2-7.8 17.8-7.8 28 0 30.1 24.5 54.5 54.5 54.5s54.5-24.5 54.5-54.5c0-10-2.7-19.5-7.5-27.5h121.4c-4.8 8.1-7.5 17.5-7.5 27.5 0 30.1 24.5 54.5 54.5 54.5s54.5-24.5 54.5-54.5-24.5-54.5-54.5-54.5h-255c-15.6 0-28.2-12.7-28.2-28.2v-36.6c8.2 4.8 17.9 7.6 28.2 7.6zm67.2 111.6c0 15.2-12.4 27.5-27.5 27.5s-27.5-12.4-27.5-27.5 12.4-27.5 27.5-27.5 27.5 12.3 27.5 27.5zm215.4 0c0 15.2-12.4 27.5-27.5 27.5s-27.5-12.4-27.5-27.5 12.4-27.5 27.5-27.5 27.5 12.3 27.5 27.5zm-14.5-138.6h-268.1c-15.6 0-28.2-12.7-28.2-28.2v-145.9l324.5 44.7v101.1c0 15.7-12.7 28.3-28.2 28.3z"/></symbol><symbol viewBox="0 0 64 64" id="close" xmlns="http://www.w3.org/2000/svg"><path d="M28.941 31.786L.613 60.114a2.014 2.014 0 1 0 2.848 2.849l28.541-28.541 28.541 28.541c.394.394.909.59 1.424.59a2.014 2.014 0 0 0 1.424-3.439L35.064 31.786 63.41 3.438A2.014 2.014 0 1 0 60.562.589L32.003 29.15 3.441.59A2.015 2.015 0 0 0 .593 3.439l28.348 28.347z"/></symbol><symbol viewBox="0 0 29 30" id="color" xmlns="http://www.w3.org/2000/svg"><path d="M27.84 8.412a3.97 3.97 0 0 0 0-5.608L25.037 0l-2.458 2.458A14.345 14.345 0 0 0 14.43 0C6.46.04-.012 6.555 0 14.526a14.406 14.406 0 0 0 4.255 10.237 14.407 14.407 0 0 0 10.246 4.239c.763 0 1.53-.06 2.278-.178a3.621 3.621 0 0 0 2.654-1.893 3.69 3.69 0 0 0 .083-3.32 8.758 8.758 0 0 1-.823-3.729c0-1.672.469-3.3 1.356-4.706a8.873 8.873 0 0 1 2.455-2.563l.497 14.437v.01a2.035 2.035 0 0 0 2.036 1.942c1.09 0 1.983-.853 2.035-1.941l.504-14.645c.184-.238.293-.537.293-.86V9.29c0-.263-.072-.509-.197-.72.057-.051.114-.104.168-.158zm-5.635.878v1.5a10.57 10.57 0 0 0-3.593 3.48 10.505 10.505 0 0 0-1.619 5.612c0 1.554.33 3.05.983 4.448.272.583.256 1.24-.044 1.803-.29.547-.807.916-1.418 1.012-.66.105-1.338.158-2.013.158a12.72 12.72 0 0 1-9.045-3.743 12.719 12.719 0 0 1-3.757-9.037C1.688 7.486 7.402 1.733 14.438 1.7a12.686 12.686 0 0 1 7.074 2.089 3.947 3.947 0 0 0-.44 1.819 3.94 3.94 0 0 0 1.33 2.962 1.407 1.407 0 0 0-.197.72zm3.17 17.694a.338.338 0 0 1-.676 0l-.482-14.012h1.64l-.483 14.012zm.795-15.712h-2.266v-1.7h2.266v1.7zm.469-4.062a2.25 2.25 0 0 1-1.602.664 2.25 2.25 0 0 1-1.602-.664 2.268 2.268 0 0 1 0-3.204l1.602-1.602 1.602 1.602c.428.428.663.997.663 1.602a2.25 2.25 0 0 1-.663 1.602z"/><path d="M11.952 19.599a2.552 2.552 0 0 0-2.549 2.549 2.552 2.552 0 0 0 2.549 2.549 2.552 2.552 0 0 0 2.549-2.549 2.552 2.552 0 0 0-2.55-2.549zm0 3.399a.85.85 0 0 1 0-1.7.85.85 0 0 1 0 1.7zm-4.928-8.1a2.552 2.552 0 0 0-2.55 2.548 2.552 2.552 0 0 0 2.55 2.55 2.552 2.552 0 0 0 2.549-2.55 2.552 2.552 0 0 0-2.55-2.549zm0 3.398a.85.85 0 0 1 0-1.7.85.85 0 0 1 0 1.7zM8.214 8.1a2.552 2.552 0 0 0-2.55 2.55 2.552 2.552 0 0 0 2.55 2.548 2.552 2.552 0 0 0 2.549-2.549A2.552 2.552 0 0 0 8.213 8.1zm0 3.399a.85.85 0 0 1 0-1.7.85.85 0 0 1 0 1.7zm5.267-7.307a2.552 2.552 0 0 0-2.549 2.549 2.552 2.552 0 0 0 2.55 2.549 2.552 2.552 0 0 0 2.548-2.55 2.552 2.552 0 0 0-2.549-2.548zm0 3.398a.85.85 0 0 1 0-1.699.85.85 0 0 1 0 1.7z"/></symbol><symbol viewBox="0 0 26 24" id="filter" xmlns="http://www.w3.org/2000/svg"><path d="M25.428 1.268a.758.758 0 0 0-.686-.435H1.258a.758.758 0 0 0-.585 1.24l9.028 10.95v10.096a.758.758 0 0 0 1.094.68l5.072-2.515a.757.757 0 0 0 .421-.678l.01-7.583 9.029-10.95a.757.757 0 0 0 .1-.805zm-10.471 11a.757.757 0 0 0-.174.481l-.01 7.386-3.557 1.763v-9.147a.757.757 0 0 0-.173-.482l-8.179-9.92h20.271l-8.178 9.92z"/></symbol><symbol viewBox="0 0 30 26" id="flyers" xmlns="http://www.w3.org/2000/svg"><path d="M29.244 8.865l-1.51-1.305a.448.448 0 1 0-.586.678l1.51 1.305c.538.465.597 1.281.132 1.82l-9.805 11.345a.448.448 0 0 0 .678.587l9.806-11.346a2.189 2.189 0 0 0-.225-3.084zm-2.657-2.297L19.603.532a2.173 2.173 0 0 0-1.588-.526 2.172 2.172 0 0 0-1.496.75l-.665.77a.448.448 0 1 0 .678.587l.665-.77c.226-.26.54-.418.883-.443a1.28 1.28 0 0 1 .937.31L26 7.247a.446.446 0 0 0 .633-.046.448.448 0 0 0-.046-.632z"/><path d="M22.33 4.983L10.249.93A2.189 2.189 0 0 0 7.48 2.308l-.16.475a.448.448 0 0 0 .851.285l.16-.475a1.291 1.291 0 0 1 1.633-.813l12.081 4.053c.674.226 1.039.958.813 1.633l-5.621 16.759a.448.448 0 0 0 .85.285l5.62-16.76a2.189 2.189 0 0 0-1.377-2.767z"/><path d="M14.93 3.859H2.187A2.19 2.19 0 0 0 0 6.045v17.677a2.19 2.19 0 0 0 2.187 2.186H14.93a2.19 2.19 0 0 0 2.186-2.186V6.045c0-1.206-.98-2.186-2.186-2.186zm1.29 19.863c0 .71-.58 1.29-1.29 1.29H2.187c-.712 0-1.29-.58-1.29-1.29V6.045c0-.711.578-1.29 1.29-1.29H14.93c.71 0 1.29.579 1.29 1.29v17.677z"/><path d="M15.163 16.233H1.953a.448.448 0 0 0 0 .897h13.21a.448.448 0 1 0 0-.897zm-2.09 2.564H7.52a.448.448 0 0 0 0 .897h5.552a.448.448 0 0 0 0-.897zm-7.047 0H4.043a.448.448 0 0 0 0 .897h1.983a.448.448 0 0 0 0-.897zm7.047 1.713h-9.03a.448.448 0 0 0 0 .898h9.03a.448.448 0 0 0 0-.897zm0 1.715h-9.03a.448.448 0 0 0 0 .897h9.03a.448.448 0 0 0 0-.897zm.413-13.165a.448.448 0 0 0-.362-.304l-2.877-.418L8.96 5.73a.448.448 0 0 0-.804 0L6.869 8.338l-2.877.418a.448.448 0 0 0-.248.764l2.082 2.03-.492 2.865a.448.448 0 0 0 .65.473l2.574-1.353 2.573 1.353a.448.448 0 0 0 .65-.473l-.49-2.865 2.081-2.03a.448.448 0 0 0 .114-.46zm-2.99 2.012a.448.448 0 0 0-.13.397l.379 2.202-1.978-1.04a.449.449 0 0 0-.418 0l-1.978 1.04.378-2.202a.448.448 0 0 0-.129-.397l-1.6-1.56 2.211-.321a.448.448 0 0 0 .338-.245l.989-2.004.989 2.004a.448.448 0 0 0 .337.245l2.212.321-1.6 1.56z"/></symbol><symbol viewBox="0 0 51.997 51.997" id="like-icon" xmlns="http://www.w3.org/2000/svg"><path d="M51.911 16.242c-.759-8.354-6.672-14.415-14.072-14.415-4.93 0-9.444 2.653-11.984 6.905-2.517-4.307-6.846-6.906-11.697-6.906C6.759 1.826.845 7.887.087 16.241c-.06.369-.306 2.311.442 5.478 1.078 4.568 3.568 8.723 7.199 12.013l18.115 16.439 18.426-16.438c3.631-3.291 6.121-7.445 7.199-12.014.748-3.166.502-5.108.443-5.477zm-2.39 5.019c-.984 4.172-3.265 7.973-6.59 10.985L25.855 47.481 9.072 32.25c-3.331-3.018-5.611-6.818-6.596-10.99-.708-2.997-.417-4.69-.416-4.701l.015-.101c.65-7.319 5.731-12.632 12.083-12.632 4.687 0 8.813 2.88 10.771 7.515l.921 2.183.921-2.183c1.927-4.564 6.271-7.514 11.069-7.514 6.351 0 11.433 5.313 12.096 12.727.002.016.293 1.71-.415 4.707z"/></symbol><symbol viewBox="0 0 28 29" id="meter" xmlns="http://www.w3.org/2000/svg"><path d="M8.706 3.765c-1.647 0-2.941.94-2.941 2.117S7.059 8 8.706 8c1.647 0 2.941-.941 2.941-2.118 0-1.176-1.294-2.117-2.94-2.117zm0 3.059c-1 0-1.765-.53-1.765-.942 0-.47.765-.94 1.765-.94 1 0 1.765.529 1.765.94 0 .471-.765.942-1.765.942z"/><path d="M25.059 10.588h-7.647V5.882C17.412 2.647 13.529 0 8.706 0 3.882 0 0 2.647 0 5.882v12c0 2.647 2.647 5 6.412 5.706v4.824c0 .353.235.588.588.588h18.059A2.913 2.913 0 0 0 28 26.059v-12.53a2.913 2.913 0 0 0-2.941-2.94zM8.706 1.176c4.176 0 7.53 2.118 7.53 4.706 0 2.589-3.354 4.706-7.53 4.706-4.177 0-7.53-2.117-7.53-4.706 0-2.588 3.353-4.706 7.53-4.706zm7.53 7.648v1.764h-2.354c.941-.47 1.765-1.059 2.353-1.764zm-9.824 7.058v6.47c-3.06-.646-5.236-2.41-5.236-4.47V8.824c1.53 1.764 4.295 2.94 7.53 2.94h16.353c1 0 1.764.765 1.764 1.765 0 1-.764 1.765-1.764 1.765H7c-.353 0-.588.235-.588.588zM26.942 26h-.119c0 1-.764 1.765-1.764 1.765h-.706v-2.706c0-.353-.235-.588-.588-.588s-.588.235-.588.588v2.706H21v-2.706c0-.353-.235-.588-.588-.588s-.588.235-.588.588v2.706h-2.177v-2.706c0-.353-.235-.588-.588-.588s-.588.235-.588.588v2.706h-2.177v-2.706c0-.353-.235-.588-.588-.588s-.588.235-.588.588v2.706H10.94v-2.706c0-.353-.235-.588-.588-.588s-.588.235-.588.588v2.706h-2.06v-4.53c0-.058.06-.117.06-.117 0-.118 0-.177-.06-.294V16.47h17.471c.648 0 1.295-.236 1.765-.589V26z"/></symbol><symbol viewBox="0 0 30 29" id="money" xmlns="http://www.w3.org/2000/svg"><path d="M25.49 9.525H.43a.429.429 0 0 0-.43.428v12.031a.43.43 0 0 0 .429.429H17.47a.43.43 0 0 0 0-.86H.86v-11.17h24.2v1.075a.429.429 0 1 0 .859.001V9.954a.429.429 0 0 0-.428-.43zM22.576 7.53L2.53 3.02a.431.431 0 0 0-.514.326l-1.003 4.51a.43.43 0 0 0 .84.187l.908-4.09 19.628 4.416a.43.43 0 0 0 .189-.838zm-2.434-2.485L8.113.033a.431.431 0 0 0-.551.205L6.56 2.243a.431.431 0 1 0 .77.385L8.153.984 19.81 5.84a.43.43 0 1 0 .332-.795z"/><path d="M20.446 11.53h-3.978a.43.43 0 0 0 0 .859h3.978a.43.43 0 0 0 0-.86zm-7.988.028a4.41 4.41 0 1 0 0 8.821 4.41 4.41 0 0 0 0-8.82zm0 8.02a3.609 3.609 0 1 1 0-7.218 3.609 3.609 0 0 1 0 7.217zm12.029-6.617c-2.656 0-5.513.628-5.513 2.005v12.029c0 1.377 2.857 2.005 5.513 2.005C27.143 29 30 28.372 30 26.995V14.966c0-1.377-2.857-2.004-5.513-2.004zm4.51 14.026c-.075.279-1.578 1.01-4.51 1.01-2.932 0-4.435-.731-4.51-1.002v-.788c1.066.537 2.828.788 4.51.788 1.683 0 3.445-.253 4.51-.789v.781zm0-2.004c-.075.278-1.578 1.01-4.51 1.01-2.932 0-4.435-.732-4.51-1.003v-.788c1.066.537 2.828.788 4.51.788 1.683 0 3.445-.253 4.51-.788v.78zm0-2.005c-.075.278-1.578 1.01-4.51 1.01-2.932 0-4.435-.732-4.51-1.003v-.788c1.066.538 2.828.788 4.51.788 1.683 0 3.445-.253 4.51-.788v.78zm0-2.005c-.075.278-1.578 1.01-4.51 1.01-2.932 0-4.435-.732-4.51-1.002v-.788c1.066.537 2.828.788 4.51.788 1.683 0 3.445-.254 4.51-.789v.781zm0-2.005c-.075.278-1.578 1.01-4.51 1.01-2.932 0-4.435-.732-4.51-1.002v-.788c1.066.535 2.828.788 4.51.788 1.683 0 3.445-.253 4.51-.789v.781zm0-2.004c-.075.278-1.578 1.01-4.51 1.01-2.932 0-4.435-.732-4.51-1.003v-.788c1.066.535 2.828.788 4.51.788 1.683 0 3.445-.253 4.51-.788v.78zm-4.51-.995c-2.927 0-4.43-.73-4.51-.994v-.003c.08-.279 1.583-1.008 4.51-1.008 2.907 0 4.41.719 4.51 1.002-.1.284-1.603 1.003-4.51 1.003z"/><path d="M8.449 19.548H4.66l-1.796-1.964v-3.258l1.984-1.937h3.6a.43.43 0 0 0 0-.86H4.674a.43.43 0 0 0-.3.122l-2.24 2.184a.538.538 0 0 0-.129.35v3.565c0 .108.04.21.113.29l2.036 2.227a.43.43 0 0 0 .317.14H8.45a.43.43 0 0 0 0-.859zm4.26-4.081h-.502c-.155 0-.25-.087-.25-.125 0-.038.095-.125.25-.125h1.253a.501.501 0 0 0 0-1.003h-.5a.501.501 0 0 0-1.003 0v.023a1.167 1.167 0 0 0-1.003 1.103 1.197 1.197 0 0 0 1.253 1.13h.502c.156 0 .25.087.25.125 0 .038-.094.125-.25.125h-1.253a.501.501 0 0 0 0 1.003h.5a.501.501 0 0 0 1.003 0V17.7a1.167 1.167 0 0 0 1.003-1.102 1.197 1.197 0 0 0-1.253-1.13z"/></symbol><symbol viewBox="0 0 480.24 480.24" id="online-shop" xmlns="http://www.w3.org/2000/svg"><path d="M480 75.962c-.526-33.492-28.042-60.25-61.536-59.84H61.536C28.012 15.713.483 42.519 0 76.042v248.16c.483 33.523 28.012 60.329 61.536 59.92h126.552l-10.248 32h-18.592c-12.834.013-23.235 10.414-23.248 23.248v1.504c.013 12.834 10.414 23.235 23.248 23.248h177.504c12.832-.018 23.23-10.416 23.248-23.248v-1.504c-.018-12.832-10.416-23.23-23.248-23.248h-19.024l-10.64-32h111.616a61.886 61.886 0 0 0 44.112-18.144 58.796 58.796 0 0 0 17.424-41.856L480 75.962zm-143.248 356.16A7.265 7.265 0 0 1 344 439.37v1.504a7.265 7.265 0 0 1-7.248 7.248H159.248a7.265 7.265 0 0 1-7.248-7.248v-1.504a7.265 7.265 0 0 1 7.248-7.248h177.504zm-142.112-16l10.248-32h85.344l10.64 32H194.64zm256.856-61.448a45.987 45.987 0 0 1-32.792 13.448H61.536c-20.067.195-37.877-12.821-43.784-32h444.576a43.14 43.14 0 0 1-10.832 18.552zM16 320.122V76.042c.482-24.687 20.848-44.33 45.536-43.92h356.928c24.67-.411 45.028 19.204 45.536 43.872l.24 244.128H16z"/><path d="M392 240.122h16v16h-16zm-32 0h16v16h-16zm-32 0h16v16h-16zm-102.543-127.87a8.006 8.006 0 0 0-1.457-.129H102.552l-6.712-33.6a8 8 0 0 0-7.84-6.4H56v16h25.44l6.696 33.472 15.344 84.384c-9.03 12.146-7.812 29.072 2.864 39.8a8 8 0 0 0 5.656 2.344h96v-16h-92.24a14.505 14.505 0 0 1 .264-16h92a8 8 0 0 0 7.872-6.568l16-88a8 8 0 0 0-6.439-9.303zm-24.097 87.87h-82.688l-13.088-72h108.832l-13.056 72z"/><path d="M168 144.122h16v40h-16zm-32 0h16v40h-16zm-4 112c-6.627 0-12 5.373-12 12s5.373 12 12 12 12-5.373 12-12-5.373-12-12-12zm0 16a4 4 0 1 1 0-8 4 4 0 0 1 0 8zm56-16c-6.627 0-12 5.373-12 12s5.373 12 12 12 12-5.373 12-12-5.373-12-12-12zm0 16a4 4 0 1 1 0-8 4 4 0 0 1 0 8zm92-176h128v16H280zm0 48h128v16H280zm0 48h128v16H280z"/></symbol><symbol viewBox="0 0 30 23" id="organization" xmlns="http://www.w3.org/2000/svg"><path d="M10.853.753v6.794c0 .417.337.753.753.753h2.644v2.045H4.15a.752.752 0 0 0-.753.753v2.687H.753a.752.752 0 0 0-.753.753v6.794c0 .417.337.753.753.753h6.794a.752.752 0 0 0 .753-.753v-6.794a.752.752 0 0 0-.753-.753h-2.65v-1.94h9.347v1.94H11.6a.752.752 0 0 0-.753.753v6.794c0 .417.336.753.753.753h6.794a.752.752 0 0 0 .753-.753v-6.794a.752.752 0 0 0-.753-.753H15.75v-1.94h9.347v1.94h-2.644a.752.752 0 0 0-.753.753v6.794c0 .417.336.753.753.753h6.794a.752.752 0 0 0 .753-.753v-6.794a.752.752 0 0 0-.753-.753h-2.644v-2.687a.752.752 0 0 0-.753-.753h-10.1V8.3h2.644a.752.752 0 0 0 .753-.753V.753A.752.752 0 0 0 18.394 0H11.6a.751.751 0 0 0-.747.753zm-4.058 19.82h-5.29v-5.295h5.29v5.295zm10.846 0h-5.294v-5.295h5.294v5.295zm10.847 0H23.2v-5.295h5.295v5.295h-.006zM12.353 1.5h5.294v5.295h-5.294V1.5z"/></symbol><symbol viewBox="0 0 477 477" id="placeholder" xmlns="http://www.w3.org/2000/svg"><path d="M238.4 0C133 0 47.2 85.8 47.2 191.2c0 12 1.1 24.1 3.4 35.9.1.7.5 2.8 1.3 6.4 2.9 12.9 7.2 25.6 12.8 37.7 20.6 48.5 65.9 123 165.3 202.8 2.5 2 5.5 3 8.5 3s6-1 8.5-3c99.3-79.8 144.7-154.3 165.3-202.8 5.6-12.1 9.9-24.7 12.8-37.7.8-3.6 1.2-5.7 1.3-6.4 2.2-11.8 3.4-23.9 3.4-35.9C429.6 85.8 343.8 0 238.4 0zm161.2 222.4c0 .2-.1.4-.1.6-.1.5-.4 2-.9 4.3v.2c-2.5 11.2-6.2 22.1-11.1 32.6-.1.1-.1.3-.2.4-18.7 44.3-59.7 111.9-148.9 185.6-89.2-73.7-130.2-141.3-148.9-185.6-.1-.1-.1-.3-.2-.4-4.8-10.4-8.5-21.4-11.1-32.6v-.2c-.6-2.3-.8-3.8-.9-4.3 0-.2-.1-.4-.1-.7-2-10.3-3-20.7-3-31.2 0-90.5 73.7-164.2 164.2-164.2s164.2 73.7 164.2 164.2c0 10.6-1 21.1-3 31.3z"/><path d="M238.4 71.9c-66.9 0-121.4 54.5-121.4 121.4s54.5 121.4 121.4 121.4 121.4-54.5 121.4-121.4S305.3 71.9 238.4 71.9zm0 215.8c-52.1 0-94.4-42.4-94.4-94.4s42.4-94.4 94.4-94.4 94.4 42.4 94.4 94.4-42.3 94.4-94.4 94.4z"/></symbol><symbol viewBox="0 0 451 451" id="search" xmlns="http://www.w3.org/2000/svg"><path d="M447.05 428l-109.6-109.6c29.4-33.8 47.2-77.9 47.2-126.1C384.65 86.2 298.35 0 192.35 0 86.25 0 .05 86.3.05 192.3s86.3 192.3 192.3 192.3c48.2 0 92.3-17.8 126.1-47.2L428.05 447c2.6 2.6 6.1 4 9.5 4s6.9-1.3 9.5-4c5.2-5.2 5.2-13.8 0-19zM26.95 192.3c0-91.2 74.2-165.3 165.3-165.3 91.2 0 165.3 74.2 165.3 165.3s-74.1 165.4-165.3 165.4c-91.1 0-165.3-74.2-165.3-165.4z"/></symbol><symbol viewBox="0 0 30 28" id="sort" xmlns="http://www.w3.org/2000/svg"><path d="M15.562 22.338H.882a.882.882 0 1 0 0 1.764h14.68a.882.882 0 1 0 0-1.764zm1.746-3.738H.882a.881.881 0 1 0 0 1.762h16.426a.882.882 0 0 0 0-1.763zm-2.458-3.697H.882a.882.882 0 0 0 0 1.763H14.85a.882.882 0 1 0 0-1.763zm1.973-3.745H.882a.882.882 0 0 0 0 1.763h15.941a.882.882 0 0 0 0-1.763zm-5.641-3.696H.882a.882.882 0 0 0 0 1.763h10.3a.882.882 0 0 0 0-1.763zm1.704-3.754H.882a.882.882 0 0 0 0 1.763h12.004a.882.882 0 1 0 0-1.763z"/><path d="M29.151 5.305L24.705.859l.01-.01A2.894 2.894 0 0 0 22.653 0a2.893 2.893 0 0 0-2.063.849.879.879 0 0 0-.098.118l-4.338 4.338a2.906 2.906 0 0 0 0 4.105 2.902 2.902 0 0 0 3.61.396v14.727c0 1.6 1.302 2.903 2.903 2.903 1.6 0 2.903-1.302 2.903-2.903V9.823a2.902 2.902 0 0 0 3.581-4.518zm-1.246 2.858a1.141 1.141 0 0 1-1.612 0l-.982-.981a.872.872 0 0 0-.065-.059l-.03-.023c-.013-.01-.025-.02-.039-.028-.012-.009-.025-.016-.038-.023l-.036-.022-.04-.019-.038-.018-.04-.014-.041-.015-.04-.01c-.015-.004-.03-.008-.044-.01-.015-.004-.03-.005-.045-.008l-.04-.005a.895.895 0 0 0-.083-.005h-.01a.867.867 0 0 0-.081.005c-.014.001-.027.004-.041.006-.015.002-.03.003-.044.006l-.046.011-.038.01-.044.016-.037.013-.04.02c-.013.005-.026.01-.038.017-.014.007-.026.015-.039.023l-.035.022-.043.03a.89.89 0 0 0-.15.144l-.02.027-.032.043-.02.034c-.008.014-.017.026-.024.04l-.017.036-.02.042-.013.036-.016.045-.01.037-.01.047-.007.041-.006.044a.915.915 0 0 0-.004.073v16.742a1.141 1.141 0 0 1-2.28 0V7.777c0-.022-.002-.044-.003-.065l-.001-.02a.617.617 0 0 0-.01-.062.834.834 0 0 0-.018-.082c-.002-.009-.003-.017-.006-.025-.005-.019-.012-.037-.019-.055l-.01-.026a.579.579 0 0 0-.023-.05l-.013-.029-.029-.048-.016-.026a.877.877 0 0 0-.04-.054l-.011-.015a.89.89 0 0 0-.125-.125c-.006-.006-.013-.01-.02-.015a.88.88 0 0 0-.05-.037l-.03-.019L21.06 7l-.035-.017-.043-.02-.036-.013-.045-.016-.038-.01-.046-.01-.045-.007c-.013-.002-.026-.005-.04-.006a.892.892 0 0 0-.174 0c-.012 0-.022.003-.034.005a.506.506 0 0 0-.052.008c-.013.002-.025.006-.038.009l-.045.012c-.013.003-.025.008-.037.012-.015.006-.03.01-.045.017-.011.004-.021.01-.032.015L20.229 7l-.028.017c-.016.009-.031.017-.046.027l-.027.02c-.014.01-.029.02-.042.032l-.035.031-.03.027-1.009 1.01a1.141 1.141 0 0 1-1.612 0 1.141 1.141 0 0 1 0-1.612l4.457-4.457c.22-.22.507-.33.796-.333.288.003.576.114.795.333l4.457 4.456a1.14 1.14 0 0 1 0 1.612z"/></symbol><symbol viewBox="0 0 50 28" id="test-van" xmlns="http://www.w3.org/2000/svg"><path d="M0 0h50v28H0z"/><path d="M6.613 17.8h37.172V28H6.613z"/><path d="M34.31 23.696H16.088a.798.798 0 0 1-.8-.795c0-.439.358-.795.8-.795H34.31c.442 0 .801.356.801.795a.798.798 0 0 1-.8.795z"/><path class="wwheel" d="M11.752 28c-2.834 0-5.139-2.287-5.139-5.099 0-2.813 2.305-5.1 5.139-5.1 2.832 0 5.137 2.287 5.137 5.1 0 2.81-2.306 5.1-5.137 5.1zm0-8.61c-1.95 0-3.537 1.575-3.537 3.511 0 1.936 1.586 3.51 3.537 3.51 1.95 0 3.535-1.574 3.535-3.51 0-1.936-1.585-3.51-3.535-3.51zM38.647 28c-2.833 0-5.137-2.287-5.137-5.099 0-2.813 2.304-5.1 5.137-5.1 2.834 0 5.138 2.287 5.138 5.1 0 2.81-2.306 5.1-5.138 5.1zm0-8.61c-1.95 0-3.536 1.575-3.536 3.511 0 1.936 1.585 3.51 3.536 3.51 1.95 0 3.537-1.574 3.537-3.51 0-1.936-1.587-3.51-3.537-3.51z"/><path d="M34.317 23.696H16.089a.798.798 0 0 1-.8-.795c0-.439.358-.795.8-.795h18.228c.441 0 .8.356.8.795a.798.798 0 0 1-.8.795z"/><path d="M46.17 23.695h-3.19a.798.798 0 0 1-.8-.794c0-.439.358-.795.8-.795h3.19a2.222 2.222 0 0 0 2.227-2.21v-3.07a4.295 4.295 0 0 0-1.274-3.038l-3.592-3.542a.84.84 0 0 1-.163-.23l-2.945-6.327a3.656 3.656 0 0 0-3.307-2.1H4.138A2.53 2.53 0 0 0 1.6 4.107v15.79a2.22 2.22 0 0 0 2.226 2.21h3.58c.442 0 .801.357.801.795a.798.798 0 0 1-.8.795h-3.58C1.716 23.695 0 21.991 0 19.895V4.107C0 1.842 1.856 0 4.138 0h32.978a5.268 5.268 0 0 1 4.762 3.022l2.884 6.197 3.491 3.443A5.888 5.888 0 0 1 50 16.825v3.07c-.002 2.095-1.72 3.8-3.83 3.8z"/></symbol><symbol viewBox="0 0 189.512 189.511" id="van" xmlns="http://www.w3.org/2000/svg"><path d="M104.11 29.99c1.025-1.777.01-4.859-2.438-4.546-29.983 3.829-63.621 3.847-93.952 2.488-.909-.041-1.444.51-1.633 1.187a2.279 2.279 0 0 0-.66 1.512C3.652 61.116-2.141 97.303 5.11 127.4c-.52 1.116.03 2.66 1.697 2.806 30.319 2.638 66.314 3.87 96.024-3.354.121-.028.16-.112.246-.167 1.629.487 3.695-.352 3.673-2.557-.31-31.394-3.866-62.73-2.64-94.138zM9.024 126.07c-2.93-31.27 2.034-62.579 1.014-93.877 13.592 3.626 27.911 1.771 41.86 1.094 15.595-.756 32.442.506 47.863-1.751-4.871 30.894.918 61.522 1.392 92.591.004.29.096.518.166.762-29.384-3.601-62.717-1.428-92.295 1.181z"/><path class="xwheel" d="M68.451 138.679c-1.611-1.926-4.146-2.661-6.531-2.924-.516-.057-.999.072-1.455.269-4.234-2.603-10.28-.749-13.922 2.61-5.1 4.705-6.379 12.562-2.899 18.521 3.046 5.216 9.654 8.108 15.457 6.48 5.138-1.441 8.937-6.179 10.827-10.954 1.875-4.737 1.902-9.962-1.477-14.002zm-5.126 11.568c-1.286 3.753-4.984 7.87-9.291 6.745-4.982-1.303-6.567-6.865-4.526-11.128 1.983-4.142 5.358-5.232 9.192-5.412.251.345.581.659 1.098.879 1.541.654 3.429 1.018 4.046 2.775.697 1.98.134 4.237-.519 6.141zm88.032-12.486c-1.823-1.747-5.481-3.463-8.46-3.261-3.272-1.376-7.49-.199-10.514 1.364-4.335 2.24-7.521 6.397-8.896 11.021-3.122 10.493 8.19 17.823 17.445 16.479 7.734-1.123 13.198-8.996 13.918-16.286.341-3.436-1.023-6.949-3.493-9.317zm-10.311 18.222c-4.746 1.909-11.963-1.472-10.721-7.213 1.194-5.52 5.841-7.348 10.405-9.051 1.699 1.044 4.027.709 5.739 2.057 1.511 1.188 1.774 2.873 1.676 4.682-.209 3.855-3.602 8.118-7.099 9.525z"/><path d="M36.42 138.726c-6.279-1.533-12.914-1.486-19.341-1.52-4.403-.023-13.455-1.217-16.569 2.514-.673.807-.686 1.76 0 2.563 3.006 3.529 10.28 1.994 14.438 2.039 6.915.074 13.702.336 20.594.896 3.756.308 4.451-5.619.878-6.492zm150.082 4.175c-2.183.133-4.271.438-6.355.815-.487-.079-.978-.174-1.46-.21-1.457-9.108.277-18.403.225-27.588-.056-9.987-.037-20.127-1.83-29.974.156-.639.151-1.324-.112-1.942-2.558-5.993-8.031-11.603-12.259-16.6-3.638-4.301-8.488-7.355-12.531-11.212.781-1.02.749-2.679-.578-3.321-4.726-2.283-9.621-1.787-14.812-1.636-7.315.212-14.585 1.106-21.892 1.494-.018.001-.029.01-.046.011-1.351-.063-2.681.756-2.593 2.522 1.427 28.593-2.971 58.104.582 86.487-10.398-1.261-22.719-2.302-32.722.822-2.413.754-1.816 4.036.574 4.241 10.706.922 22.602 2.612 33.293 1.522 1.943-.198 2.923-1.483 3.039-2.857 3.315-10.083 9.132-17.554 19.32-21.508 14.268-5.536 23.758 5.994 24.045 19.176.206 9.437 8.466 7.847 15.718 7.062.377.049.763.04 1.129-.027.324-.073.651-.1.977-.166.982-.071 1.934-.109 2.814-.069a2.64 2.64 0 0 0 1.837-.604c1.209-.105 2.418-.203 3.636-.202 4.023-.146 4.006-6.481.001-6.236zM134.054 57.87c4.847-.297 9.944.336 14.736-.43 2.286 4.296 5.545 7.817 8.845 11.489 5.142 5.723 8.923 13.91 15.215 18.413-.016.096-.018.192-.032.288-11.768-.208-23.674.072-35.448.257-5.146.081-12.912-1.39-18.411-.675-.155-9.854-.521-19.663-1.232-29.229 5.439.346 10.874.223 16.327-.113zm36.683 86.122c-5.854.679-2.65-5.041-3.591-8.956-2.229-9.284-7.307-15.093-16.264-18.447-12.097-4.53-26.357 3.441-33.14 14.56.986-12.722 1.388-25.722 1.318-38.662 5.687 2.058 12.442 1.532 18.308 1.62 11.751.176 23.096.484 34.829-.925-.629 7.541-.342 15.113.003 22.738.422 9.364-.383 18.567.771 27.812-.737.083-1.475.172-2.234.26z"/><path d="M163.494 98.752c-2.348-.939-4.977.203-7.312.835-2.54.688-5.082 1.361-7.618 2.063-2.257.624-1.717 3.881.538 3.979 2.641.115 5.203-.249 7.819-.58 2.383-.302 5.188-.016 7.209-1.424 2.002-1.393 1.546-4-.636-4.873z"/></symbol></svg>